<svg width="173" height="57" viewBox="0 0 173 57" fill="none" xmlns="http://www.w3.org/2000/svg">
<path d="M32.8385 17.9663C32.9358 18.3881 32.9358 18.5568 33.0007 18.6412C35.1422 21.5935 35.4342 24.7427 34.623 28.0886C33.5523 32.4469 32.6438 36.8051 31.7028 41.1914C31.5406 41.8662 31.4108 42.5973 31.5081 43.2721C31.9624 46.2526 32.4815 49.2049 33.0656 52.1572C33.6172 54.9409 35.6613 56.403 38.906 56.4311C41.4044 56.4592 43.8703 56.4311 46.3687 56.4311C49.2565 56.4311 51.1384 55.2783 52.2416 52.9726C54.1235 49.0362 56.0703 45.1279 57.9847 41.1914C59.1527 38.8014 60.3533 36.4114 61.5213 34.0214C61.8458 34.6119 61.9107 35.1743 61.9431 35.7085C62.2676 40.9102 62.6245 46.0839 62.949 51.2856C63.1437 54.6035 65.1229 56.3186 68.9841 56.403C71.0282 56.4311 73.1048 56.3467 75.149 56.4311C78.5559 56.5717 80.7947 55.3908 82.3197 52.6634C86.9596 44.3125 91.7941 36.0178 96.5313 27.7231C97.1803 26.5984 97.8941 25.4737 98.4457 24.2928C99.9058 21.1155 97.667 18.0788 93.7409 17.882C92.1186 17.7976 90.4963 17.8257 88.8739 17.9382C86.7 18.0788 85.2074 19.091 84.3314 20.8624C82.4495 24.7145 80.5351 28.5104 78.6208 32.3344C77.0958 35.3711 75.5708 38.4078 74.0782 41.4163C73.7862 40.9665 73.7537 40.5728 73.7213 40.1792C73.4293 34.3307 73.1373 28.4823 72.8452 22.6338C72.683 19.4284 70.9309 17.9382 67.2644 17.8539C65.4798 17.8257 63.6953 17.8257 61.9107 17.8539C59.2176 17.9101 57.3357 18.8942 56.265 21.1436C53.9288 26.0361 51.4953 30.8723 49.0618 35.7366C48.0884 37.7329 47.0826 39.7293 45.882 42.0912C45.8171 41.2758 45.7522 40.9102 45.7198 40.5447C45.4602 34.4994 45.1682 28.4542 44.9411 22.437C44.8762 20.6375 44.0001 19.1754 42.1831 18.4443C39.2629 17.2915 36.0831 18.0226 32.8385 17.9663Z" fill="#AFAFAF"/>
<path d="M142.315 24.4911C141.699 20.1891 139.947 18.8394 135.177 18.8394C134.431 18.8394 133.652 18.8394 132.906 18.8394C129.272 18.8676 127.26 20.3015 126.611 23.3945C126.027 26.15 125.508 28.9336 124.956 31.6891C123.723 37.8188 122.458 43.9484 121.257 50.1061C120.446 54.1269 122.717 56.4326 127.422 56.4607C129.045 56.4607 130.667 56.4888 132.289 56.4607C135.534 56.4044 137.546 54.9142 138.13 52.1306C138.714 49.4032 139.2 46.6758 139.784 43.9765C140.531 40.6305 141.18 37.2283 142.25 33.9667C143.321 30.7331 146.728 29.1586 150.362 29.749C152.568 30.0864 153.801 31.0987 153.931 33.0107C154.028 34.3603 153.964 35.7381 153.704 37.0596C152.893 41.5584 151.919 46.001 151.076 50.4998C150.427 54.0145 152.698 56.3482 156.786 56.4607C158.474 56.5169 160.128 56.4888 161.816 56.4607C165.255 56.4326 167.299 54.9423 167.916 52.0462C169.214 45.9166 170.576 39.8151 171.679 33.6574C172.101 31.2955 172.101 28.793 171.809 26.4031C171.42 23.0008 169.278 20.4984 165.547 19.1206C161.491 17.6304 157.338 17.5741 153.152 18.502C148.902 19.458 145.495 21.6512 142.315 24.4911Z" fill="#AFAFAF"/>
<path d="M11.2946 34.0514C11.0999 35.0918 10.9701 35.851 10.8079 36.6382C9.99672 40.3216 9.15311 43.9769 8.40683 47.6884C7.62811 51.5405 9.73715 54.7178 13.6308 55.8706C17.8164 57.1078 23.2674 55.3364 24.4031 49.7972C25.9605 42.093 27.6477 34.417 29.2376 26.7409C29.8217 23.9291 28.8807 21.4829 26.3499 19.6834C23.9488 17.9963 21.0935 17.6589 18.2382 18.7274C13.4036 20.4707 8.63396 22.3545 3.89674 24.2947C2.92334 24.6883 1.94994 25.3631 1.301 26.0942C-0.386225 28.0343 -0.353778 30.7054 1.17122 32.6737C2.63132 34.5294 5.45418 35.4573 8.17971 34.895C9.08821 34.6981 9.99672 34.3888 11.2946 34.0514Z" fill="#AFAFAF"/>
<path d="M113.371 17.9109C112.398 17.9109 111.425 17.8828 110.451 17.9109C107.142 17.9672 105.26 19.373 104.643 22.1848C102.599 31.5761 100.587 40.9392 98.5757 50.3304C97.8294 53.8732 100.068 56.3476 104.221 56.4601C106.103 56.5163 108.018 56.5163 109.9 56.4601C112.658 56.3757 114.702 54.9417 115.221 52.6642C117.427 42.8793 119.601 33.0944 121.678 23.3095C122.294 20.4415 119.828 18.0234 116.486 17.9109C115.416 17.8828 114.377 17.9109 113.371 17.9109Z" fill="#AFAFAF"/>
<path d="M107.824 6.74841C107.824 10.6005 111.166 13.5247 115.611 13.4966C119.959 13.4685 123.431 10.4318 123.366 6.66405C123.334 2.95254 119.927 0.0283186 115.611 0.000201059C111.199 -0.0279165 107.824 2.89631 107.824 6.74841Z" fill="#AFAFAF"/>
</svg>
