<svg width="151" height="27" viewBox="0 0 151 27" fill="none" xmlns="http://www.w3.org/2000/svg">
<g clip-path="url(#clip0_348_1423)">
<path fill-rule="evenodd" clip-rule="evenodd" d="M47.1822 26.4359C46.9201 25.5228 46.5268 24.7402 46.1336 23.6967L45.0851 20.9575H35.255L34.3375 23.8271L33.42 26.4359H29.0948L31.5851 19.7835L33.8132 13.9138L36.0414 8.69628L38.4006 3.73962H42.4637L44.6919 8.69628L46.9201 13.9138L49.1482 19.7835L51.6385 26.4359H47.1822ZM40.2356 8.17452L38.4006 12.3485L36.4346 17.827H44.0366L41.9395 12.479L40.2356 8.17452ZM60.8133 1.13086C61.7308 1.13086 62.6483 1.2613 63.3036 1.39174C63.9589 1.52217 64.4832 1.65261 64.8764 1.78305L64.09 5.04401C63.6968 4.91357 63.1725 4.78313 62.7793 4.65269C62.3861 4.52225 61.7308 4.52225 61.2065 4.52225C60.5512 4.52225 60.0269 4.65269 59.5026 4.78313C59.1094 5.04401 58.7162 5.17444 58.4541 5.56576C58.1919 5.95707 58.0609 6.21795 57.9298 6.7397C57.7987 7.26146 57.7987 7.78321 57.7987 8.30496V9.47891H64.2211V12.7399H57.7987V26.5663H53.7356V8.30496C53.7356 6.08751 54.2599 4.39181 55.5706 3.08743C56.6191 1.78305 58.4541 1.13086 60.8133 1.13086ZM74.4444 1.13086C75.3619 1.13086 76.2794 1.2613 76.9347 1.39174C77.7211 1.52217 78.1143 1.65261 78.5075 1.78305L77.7211 5.04401C77.3279 4.91357 76.9347 4.78313 76.4104 4.65269C75.8862 4.52225 75.3619 4.52225 74.8376 4.52225C74.1823 4.52225 73.658 4.65269 73.1337 4.78313C72.7405 5.04401 72.3473 5.17444 72.0852 5.56576C71.823 5.95707 71.692 6.21795 71.5609 6.7397C71.4298 7.26146 71.4298 7.78321 71.4298 8.30496V9.47891H77.8522V12.7399H71.4298V26.5663H67.3667V8.30496C67.3667 6.08751 67.891 4.39181 69.2017 3.08743C70.5123 1.78305 72.0852 1.13086 74.4444 1.13086ZM95.8085 17.9574C95.8085 19.3922 95.5464 20.5662 95.1532 21.7401C94.76 22.914 94.1047 23.8271 93.3182 24.6097C92.5318 25.3924 91.6144 26.0446 90.5658 26.4359C89.5173 26.8272 88.2066 27.0881 86.8959 27.0881C85.5852 27.0881 84.2745 26.9576 83.0949 26.8272L80.0803 26.175V1.78305L84.1435 1.13086V10.0007C84.6677 9.73978 85.192 9.47891 85.8474 9.34847C86.6338 9.08759 87.2891 9.08759 88.0755 9.08759C89.2551 9.08759 90.4347 9.34847 91.3522 9.73978C92.4008 10.1311 93.1872 10.7833 93.8425 11.5659C94.4979 12.3485 95.0221 13.2616 95.4153 14.4356C95.5464 15.4791 95.8085 16.653 95.8085 17.9574ZM91.6143 17.9574C91.6143 16.2617 91.2211 14.9573 90.5658 13.9138C89.7794 12.8703 88.7309 12.479 87.2891 12.479C86.6338 12.479 85.9784 12.6094 85.4541 12.7399C84.9299 12.8703 84.5367 13.1312 84.1435 13.2616V23.0445C84.4056 23.1749 84.7988 23.1749 85.3231 23.3054C85.7163 23.4358 86.3716 23.4358 87.027 23.4358C88.4687 23.4358 89.6483 22.914 90.5658 22.001C91.2211 20.9575 91.6143 19.6531 91.6143 17.9574ZM105.114 8.95715C106.425 8.95715 107.605 9.08759 108.522 9.47891C109.44 9.87022 110.226 10.2615 110.75 10.9137C111.275 11.4355 111.668 12.2181 111.93 13.0007C112.192 13.7834 112.323 14.6964 112.323 15.7399V26.175L109.44 26.6967C108.129 26.9576 106.687 26.9576 105.114 26.9576C104.066 26.9576 103.148 26.9576 102.231 26.6967C101.313 26.4359 100.527 26.175 100.003 25.7837C99.3474 25.3924 98.9542 24.7402 98.561 24.088C98.1678 23.4358 98.0367 22.5227 98.0367 21.4792C98.0367 20.4357 98.2988 19.6531 98.561 19.0009C98.9542 18.3487 99.4784 17.827 100.134 17.4356C100.789 17.0443 101.576 16.7834 102.493 16.5226C103.41 16.2617 104.328 16.2617 105.245 16.2617L106.687 16.3921L108.26 16.653V15.8704C108.26 15.3486 108.129 14.9573 108.129 14.566C107.998 14.1747 107.867 13.7834 107.605 13.3921C107.343 13.1312 106.949 12.8703 106.556 12.7399C106.163 12.6094 105.508 12.479 104.852 12.479C103.935 12.479 103.017 12.6094 102.231 12.7399C101.444 12.8703 100.789 13.0007 100.265 13.2616L99.8717 9.73978C100.658 9.47891 101.313 9.34847 102.1 9.21803C103.017 9.08759 104.066 8.95715 105.114 8.95715ZM105.508 23.6967C106.687 23.6967 107.736 23.5662 108.391 23.4358V19.1313C108.129 19.0009 107.867 19.0009 107.343 18.8705C106.949 18.74 106.425 18.74 105.901 18.74C105.508 18.74 104.983 18.74 104.59 18.8705C104.197 19.0009 103.804 19.0009 103.41 19.2618C103.017 19.3922 102.755 19.6531 102.493 19.914C102.231 20.3053 102.1 20.5662 102.1 21.0879C102.1 22.001 102.362 22.6532 103.017 23.0445C103.542 23.5662 104.459 23.6967 105.508 23.6967ZM116.517 10.0007C117.304 9.73978 118.352 9.60934 119.532 9.34847C120.712 9.08759 122.153 9.08759 123.726 9.08759C125.168 9.08759 126.347 9.34847 127.265 9.60934C128.182 10.0007 128.969 10.5224 129.493 11.1746C130.017 11.9572 130.542 12.7399 130.673 13.6529C130.935 14.6964 131.066 15.7399 131.066 16.7834V26.4359H127.003V17.5661C127.003 16.653 126.872 15.8704 126.741 15.2182C126.61 14.566 126.347 14.0442 126.216 13.6529C125.954 13.2616 125.561 12.8703 125.037 12.7399C124.644 12.6094 124.119 12.479 123.464 12.479H121.891L120.712 12.6094V26.4359H116.648L116.517 10.0007ZM139.585 16.1313L141.289 14.4356L142.993 12.6094L144.566 10.9137L145.877 9.47891H150.726L147.056 13.1312L143.386 16.9139L145.483 18.8705L147.581 21.3488C148.367 22.2619 148.891 23.0445 149.547 23.9575L150.988 26.3054H146.27L144.959 24.2184C144.435 23.4358 143.911 22.7836 143.255 22.001C142.731 21.3488 142.076 20.6966 141.42 20.0444C140.765 19.3922 140.241 18.8705 139.585 18.4791V26.3054H135.522V1.78305L139.585 1.13086V16.1313ZM17.5607 22.1314H18.4782C22.8035 21.7401 25.0316 19.6531 25.5559 19.0009L25.8181 18.74L26.2113 18.2183C26.6045 17.4356 26.8666 16.2617 26.7355 15.4791L25.5559 10.6529C25.2938 11.9572 24.7695 13.7834 23.4588 15.6095C22.0171 17.6965 20.051 19.1313 18.6093 19.914C17.1675 20.6966 15.9879 21.0879 15.9879 21.0879C15.2015 21.3488 14.5462 21.4792 13.7598 21.4792C15.0704 22.001 16.2501 22.1314 17.5607 22.1314Z" fill="#AFAFAF"/>
<path fill-rule="evenodd" clip-rule="evenodd" d="M20.5754 25.2611L23.7211 21.3479C22.5415 22.0001 20.8376 22.6523 18.4783 22.7828C18.0851 22.7828 17.823 22.9132 17.4298 22.9132C12.9735 22.9132 9.43463 20.6957 9.43463 20.5653C8.77929 20.174 8.25501 19.6522 7.73074 19.1305C8.38608 20.6957 9.17249 22.0001 10.3521 23.1741C13.3667 26.3046 16.3812 26.6959 17.1677 26.6959H18.0851C18.8715 26.435 20.0512 25.9133 20.5754 25.2611ZM8.12394 9.08675C8.77929 8.565 9.30356 8.04324 9.9589 7.65193C8.64822 7.9128 7.0754 8.30412 5.50258 9.21719C1.7016 11.4346 0.653049 14.1738 0.52198 14.9565L0.259844 15.4782C-0.00229295 16.3913 0.390912 17.8261 1.04625 18.6087L4.19189 22.5219C3.66762 20.8262 3.66762 19.0001 3.92976 17.1739C4.19189 14.5652 5.37151 12.4781 6.28899 11.1738C7.20647 9.86938 7.99288 9.08675 8.12394 9.08675ZM7.99288 3.34747C9.5657 3.34747 11.1385 3.60834 12.7113 4.26053C15.2016 5.1736 16.9055 6.73886 18.0851 7.78237C19.2648 8.95631 19.9201 9.99981 19.9201 9.99981H20.0512C20.4444 10.652 20.8376 11.3042 20.9686 12.0868C21.0997 10.7824 20.9686 9.08675 20.4444 7.39105C19.1337 3.21703 16.6434 1.65177 15.7259 1.26046L15.2016 0.999579C14.5463 0.999579 14.022 0.869141 13.4977 0.869141C12.9735 0.869141 12.3181 0.999579 11.9249 1.13002L7.33753 3.21703C7.59967 3.34747 7.86181 3.34747 7.99288 3.34747ZM2.22587 7.39105L1.04625 12.2173C2.0948 10.7824 3.40548 9.6085 5.10937 8.69543C7.99288 6.99974 11.1385 6.73886 12.7113 6.73886L14.1531 6.8693C14.9395 6.99974 15.5948 7.13017 16.3812 7.39105C15.2016 6.34755 13.7599 5.56492 12.3181 4.91272C11.0074 4.39097 9.43463 3.99966 7.99288 3.99966C6.28899 3.99966 5.24044 4.39097 4.71617 4.65185L4.45403 4.78229L3.92976 5.04316C3.14335 5.56492 2.35694 6.60842 2.22587 7.39105ZM22.9347 15.3478C25.425 11.826 25.0318 8.82587 24.9007 7.9128L24.7696 7.65193L24.6386 7.13018C24.3764 6.21711 23.4589 5.1736 22.6725 4.78229L18.2162 2.69528C19.3958 3.99966 20.3133 5.56492 20.8376 7.39105C21.624 9.86938 21.4929 12.2173 21.2308 13.7825C20.9686 15.4782 20.5754 16.5217 20.5754 16.5217V16.6522C20.3133 17.3044 19.9201 18.087 19.5269 18.6087C20.5754 17.9565 21.8861 16.7826 22.9347 15.3478ZM9.17249 26.5655H14.2842C12.9735 26.0437 11.4007 25.1306 9.82783 23.4349C7.99288 21.4784 7.0754 19.3914 6.55112 17.8261C6.02685 16.2608 5.89578 15.0869 5.89578 14.9565C5.76471 14.6956 5.76471 14.4347 5.76471 14.0434C5.76471 13.5216 5.89578 13.1303 5.89578 12.6086C5.10937 14.0434 4.5851 15.6087 4.32296 17.0435C3.66762 21.3479 5.24044 23.8263 5.76471 24.4785L6.02685 24.7393L6.28899 25.0002C6.94433 25.9133 8.25501 26.5655 9.17249 26.5655ZM13.4977 8.82587C16.6434 8.82587 19.2648 11.3042 19.2648 14.4347C19.2648 17.5652 16.7745 20.0436 13.4977 20.0436C10.3521 20.0436 7.73074 17.5652 7.73074 14.4347C7.73074 11.3042 10.3521 8.82587 13.4977 8.82587ZM16.3812 14.4347C16.3812 12.8695 15.0706 11.5651 13.4977 11.5651C11.9249 11.5651 10.6142 12.8695 10.6142 14.4347C10.6142 16 11.9249 17.1739 13.4977 17.1739C15.0706 17.1739 16.3812 15.8695 16.3812 14.4347Z" fill="#AFAFAF"/>
</g>
<defs>
<clipPath id="clip0_348_1423">
<rect width="150.729" height="26.0876" fill="white" transform="translate(0.259766 0.869141)"/>
</clipPath>
</defs>
</svg>
