<svg width="150" height="40" viewBox="0 0 150 40" fill="none" xmlns="http://www.w3.org/2000/svg">
<g clip-path="url(#clip0_348_1377)">
<path d="M24.6564 20.3008C25.0262 21.7721 25.5502 23.2434 26.2282 24.6227C25.4885 24.5307 24.718 24.4388 23.9475 24.3775C23.9167 24.3468 23.8859 24.3162 23.8242 24.3162C24.3482 22.9981 24.6256 21.6188 24.6564 20.3008Z" fill="#AFAFAF"/>
<path d="M39.1112 13.2514V27.6578C39.1112 28.2402 39.0804 28.7613 39.0188 29.2824C38.6489 32.8686 37.0771 34.2786 37.0771 34.2786C36.399 33.7576 35.6285 33.4817 34.7964 33.4817C34.7656 33.4817 34.7656 33.4817 34.7656 33.4817C32.8239 33.3897 30.7897 34.6771 30.0192 36.884C29.2179 36.4243 28.17 36.976 27.3686 37.8036H27.3995C27.1837 38.0182 26.968 38.294 26.7831 38.5392C25.9817 39.7347 24.2558 39.1216 24.2558 39.1216C24.4407 38.0795 23.362 37.5277 23.362 37.5277C23.5161 38.2634 22.838 38.8151 22.838 38.8151C21.821 38.9684 20.5265 38.2634 20.4032 36.0258H20.3724C20.3416 35.9032 20.3416 35.7806 20.3416 35.658C20.3416 33.0832 21.0196 29.8341 21.0196 29.8341C20.3416 29.6502 19.6635 29.6502 18.9855 29.8341C18.9855 29.8341 19.6635 33.0832 19.6635 35.658C19.6635 35.7806 19.6635 35.8725 19.6327 35.9951C17.2595 36.0258 14.9172 36.5775 12.5748 37.7729C11.7735 36.976 10.7564 36.4549 9.9859 36.884C9.21539 34.6771 7.21206 33.3897 5.23955 33.4817L5.27037 33.451C4.49986 33.4817 3.69853 33.7576 3.02048 34.248C3.02048 34.248 1.35617 32.7767 1.04797 28.9452C1.01715 28.5161 0.986328 28.1176 0.986328 27.6578V13.2514C0.986328 12.8223 1.32535 12.2706 1.94176 11.6269C2.40407 11.9334 2.86638 12.2093 3.3595 12.4545C2.86638 12.2093 2.40407 11.9334 1.97258 11.6269C3.88345 9.60387 8.29078 6.7839 12.2666 4.3624C13.8693 3.41219 15.4103 2.52329 16.7048 1.78764C18.7697 0.62287 21.297 0.62287 23.362 1.78764C24.6564 2.52329 26.1975 3.41219 27.8001 4.3624C27.2454 5.2513 26.7831 6.14021 26.3824 6.99846C26.7831 6.14021 27.2762 5.2513 27.8001 4.39305C31.6527 6.66129 35.9059 9.41996 37.9092 11.4123C34.6423 13.558 29.6802 14.968 24.2866 15.5197V15.489C24.2558 15.8875 24.2558 16.286 24.2558 16.6538C24.1941 16.286 24.0709 15.9182 23.9168 15.5197C23.9784 15.5197 24.04 15.5197 24.1017 15.489C24.04 15.489 23.9784 15.489 23.8859 15.489V15.5197C23.1462 13.4354 21.8518 11.2897 20.0026 9.08279C18.1225 11.3204 16.828 13.466 16.0884 15.6116C15.9959 15.9182 15.9034 16.2247 15.811 16.5005C15.811 16.194 15.811 15.9182 15.811 15.6116V15.581C15.9034 15.6116 15.9651 15.6116 16.0267 15.6116C15.9651 15.6116 15.9034 15.581 15.811 15.581H15.7801V15.6116C15.7801 15.9795 15.811 16.286 15.7801 16.6538C15.7801 16.5925 15.811 16.5618 15.811 16.5005C15.811 16.5618 15.811 16.6232 15.811 16.6845C15.4719 17.8799 15.3487 19.0753 15.3795 20.2707C15.3795 20.3014 15.3487 20.332 15.3487 20.3627C15.4103 21.7114 15.6877 22.9681 16.1808 24.2555C15.4103 24.3168 14.6706 24.3781 13.9617 24.4394C13.9617 24.4394 13.9617 24.4394 13.9617 24.47C13.9617 24.47 13.9617 24.47 13.9309 24.47C14.6398 24.4087 15.3795 24.3168 16.1192 24.2861C16.1192 24.3168 16.15 24.3168 16.15 24.3474C13.4994 25.7268 13.2529 28.6693 14.8555 32.838C15.5644 30.5391 16.5198 28.7 17.9684 27.8724C18.1225 28.608 18.7697 29.1598 19.9717 29.1598C21.1429 29.1598 21.7901 28.608 21.9751 27.8724C23.4236 28.6693 24.3791 30.5085 25.0879 32.838C26.629 28.7306 26.4132 25.8187 23.9168 24.4394C24.6873 24.5007 25.4578 24.5926 26.1975 24.6846C27.3686 26.9835 29.0329 29.0985 31.1287 30.9069C29.0329 29.0985 27.3686 26.9528 26.2283 24.5926C26.2283 24.5926 26.2283 24.5926 26.2591 24.5926C25.5811 23.2133 25.0571 21.7727 24.7181 20.2707C24.7797 19.0753 24.6564 17.8799 24.2866 16.6538C24.2866 16.2553 24.2866 15.8569 24.3174 15.489C29.711 14.9373 34.7039 13.558 37.9401 11.3817C38.6489 12.1173 39.1112 12.7917 39.1112 13.2514Z" fill="#AFAFAF"/>
<path d="M12.6367 37.772C14.9791 36.5765 17.3214 36.0248 19.6946 35.9941C19.6021 38.2624 18.246 38.998 17.2598 38.8448C17.2598 38.8448 16.5817 38.293 16.7358 37.5574C16.7358 37.5574 15.6571 38.1091 15.842 39.1513C15.842 39.1513 14.1161 39.7643 13.3148 38.5689C13.1298 38.2624 12.8833 38.0172 12.6367 37.772Z" fill="#AFAFAF"/>
<path d="M15.8414 16.4996C15.8414 16.5609 15.8105 16.5916 15.8105 16.6529C15.8414 16.2851 15.8105 15.9786 15.8105 15.6107V15.5801H15.8414V15.6107C15.8414 15.8866 15.8722 16.1931 15.8414 16.4996Z" fill="#AFAFAF"/>
<path d="M22.0976 18.891C22.0976 20.0251 21.173 20.914 20.0634 20.914C18.9231 20.914 18.0293 19.9944 18.0293 18.891C18.0293 17.7568 18.9539 16.8679 20.0634 16.8679C21.173 16.8373 22.0976 17.7568 22.0976 18.891Z" fill="#AFAFAF"/>
<path d="M24.1322 15.4883C24.0705 15.4883 24.0089 15.5189 23.9473 15.5189V15.4883C23.9781 15.4883 24.0397 15.4883 24.1322 15.4883Z" fill="#AFAFAF"/>
<path d="M24.1322 15.4883C24.0705 15.4883 24.0089 15.5189 23.9473 15.5189V15.4883C23.9781 15.4883 24.0397 15.4883 24.1322 15.4883Z" fill="#AFAFAF"/>
<path d="M13.9616 24.4395C13.9 24.4395 13.9 24.4701 13.8691 24.4701C13.9 24.4395 13.9308 24.4395 13.9616 24.4395Z" fill="#AFAFAF"/>
<path d="M13.9616 24.4395C13.9308 24.4395 13.9 24.4701 13.8691 24.4701C13.9 24.4395 13.9308 24.4395 13.9616 24.4395Z" fill="#AFAFAF"/>
<path d="M13.9616 24.4395C13.9 24.4395 13.9 24.4701 13.8691 24.4701C13.9 24.4395 13.9308 24.4395 13.9616 24.4395Z" fill="#AFAFAF"/>
<path d="M15.8414 16.5002C15.8414 16.5615 15.8105 16.5922 15.8105 16.6535C15.8414 16.2857 15.8105 15.9792 15.8105 15.6113H15.8414C15.8414 15.8872 15.8722 16.1937 15.8414 16.5002Z" fill="#AFAFAF"/>
<path d="M15.8427 15.5831C15.8099 15.5504 15.8427 15.5504 15.8427 15.5831V15.5831Z" fill="#AFAFAF"/>
<path d="M43.1172 23.2749C43.1172 21.773 43.3946 20.3323 43.9802 18.9836C44.5658 17.635 45.3363 16.4702 46.3533 15.4587C47.3704 14.4472 48.5416 13.6809 49.8669 13.0985C51.1922 12.5161 52.6407 12.2402 54.1509 12.2402C55.6303 12.2402 57.0789 12.5161 58.4041 13.0985C59.7602 13.6809 60.9314 14.4472 61.9485 15.428C62.9656 16.4089 63.7361 17.5737 64.3525 18.8917C64.9381 20.2097 65.2463 21.6504 65.2463 23.1523V33.482C65.2463 33.9724 64.9997 34.2176 64.5066 34.2176C64.0135 34.2176 63.7669 33.9724 63.7669 33.482V28.5164C62.7806 30.1716 61.4554 31.5509 59.7602 32.6237C58.0651 33.6966 56.1851 34.2483 54.1201 34.2483C52.6099 34.2483 51.1613 33.9724 49.8361 33.39C48.5108 32.8076 47.3396 32.0413 46.3225 31.0298C45.3054 30.0183 44.5349 28.8536 43.9493 27.5355C43.4254 26.2175 43.1172 24.7769 43.1172 23.2749ZM44.5966 23.2749C44.5966 24.5623 44.8431 25.819 45.3363 26.9838C45.8294 28.1486 46.5074 29.1601 47.4012 30.0183C48.2642 30.8766 49.2813 31.5509 50.4525 32.072C51.6236 32.5624 52.8565 32.8076 54.1817 32.8076C55.4762 32.8076 56.7398 32.5624 57.911 32.072C59.0822 31.5816 60.0993 30.9072 60.9622 30.0183C61.8252 29.1601 62.5341 28.1486 63.0272 26.9838C63.5512 25.819 63.7977 24.5929 63.7977 23.2749C63.7977 21.9875 63.5512 20.7308 63.0272 19.566C62.5033 18.4013 61.8252 17.3898 60.9622 16.5315C60.0993 15.6732 59.0822 14.9683 57.911 14.4778C56.7398 13.9567 55.507 13.7115 54.1817 13.7115C52.8873 13.7115 51.6236 13.9567 50.4525 14.4778C49.2813 14.9989 48.2642 15.6732 47.4012 16.5315C46.5383 17.3898 45.8602 18.4013 45.3363 19.566C44.8431 20.7308 44.5966 21.9875 44.5966 23.2749Z" fill="#AFAFAF"/>
<path d="M70.6081 11.0757C70.6081 10.3094 70.7622 9.60436 71.0396 8.89937C71.317 8.19438 71.7177 7.58134 72.2108 7.06026C72.7039 6.53917 73.3203 6.11005 73.9984 5.80353C74.6764 5.49701 75.4161 5.34375 76.2175 5.34375C76.4332 5.34375 76.6181 5.43571 76.7414 5.55831C76.8647 5.71157 76.9572 5.86483 76.9572 6.04874C76.9572 6.53917 76.7106 6.78439 76.2175 6.78439C75.0155 6.78439 73.9984 7.18286 73.2279 8.01046C72.4574 8.83806 72.0567 9.84958 72.0567 11.045V12.2098H76.125C76.6181 12.2098 76.8647 12.455 76.8647 12.9454C76.8647 13.1293 76.8031 13.2826 76.649 13.4358C76.5257 13.5891 76.3408 13.6504 76.125 13.6504H72.0567V33.4822C72.0567 33.9726 71.8101 34.2178 71.317 34.2178C70.8239 34.2178 70.5773 33.9726 70.5773 33.4822V13.7117H67.8959C67.6802 13.7117 67.4953 13.6504 67.372 13.4972C67.2487 13.3439 67.1562 13.1906 67.1562 13.0067C67.1562 12.5163 67.4028 12.2711 67.8959 12.2711H70.5773V11.0757H70.6081Z" fill="#AFAFAF"/>
<path d="M81.9206 11.0757C81.9206 10.3094 82.0747 9.60436 82.3521 8.89937C82.6295 8.19438 83.0302 7.58134 83.5233 7.06026C84.0164 6.53917 84.6328 6.11005 85.3109 5.80353C85.9889 5.49701 86.7286 5.34375 87.53 5.34375C87.7457 5.34375 87.9306 5.43571 88.0539 5.55831C88.1772 5.71157 88.2697 5.86483 88.2697 6.04874C88.2697 6.53917 88.0231 6.78439 87.53 6.78439C86.328 6.78439 85.3109 7.18286 84.5404 8.01046C83.7699 8.83806 83.3692 9.84958 83.3692 11.045V12.2098H87.4375C87.9306 12.2098 88.1772 12.455 88.1772 12.9454C88.1772 13.1293 88.1156 13.2826 87.9615 13.4358C87.8382 13.5891 87.6532 13.6504 87.4375 13.6504H83.3692V33.4822C83.3692 33.9726 83.1226 34.2178 82.6295 34.2178C82.1364 34.2178 81.8898 33.9726 81.8898 33.4822V13.7117H79.2084C78.9927 13.7117 78.8078 13.6504 78.6845 13.4972C78.5612 13.3439 78.4688 13.1906 78.4688 13.0067C78.4688 12.5163 78.7153 12.2711 79.2084 12.2711H81.8898V11.0757H81.9206Z" fill="#AFAFAF"/>
<path d="M89.748 6.66194C89.748 6.26346 89.8713 5.92629 90.1487 5.65043C90.4261 5.37456 90.7651 5.25195 91.1658 5.25195C91.5665 5.25195 91.9055 5.37456 92.1829 5.65043C92.4602 5.92629 92.5835 6.26346 92.5835 6.66194V31.4287H104.172C104.573 31.4287 104.912 31.5513 105.189 31.8271C105.466 32.103 105.59 32.4402 105.59 32.8386C105.59 33.2371 105.466 33.5743 105.189 33.8502C104.912 34.126 104.573 34.2486 104.172 34.2486H91.1658C90.7651 34.2486 90.4261 34.126 90.1487 33.8502C89.8713 33.5743 89.748 33.2371 89.748 32.8386V6.66194Z" fill="#AFAFAF"/>
<path d="M106.762 6.66194C106.762 6.26346 106.885 5.92629 107.162 5.65043C107.44 5.37456 107.779 5.25195 108.179 5.25195C108.58 5.25195 108.919 5.37456 109.197 5.65043C109.474 5.92629 109.597 6.26346 109.597 6.66194V32.8386C109.597 33.2371 109.474 33.5743 109.197 33.8502C108.919 34.126 108.58 34.2486 108.179 34.2486C107.779 34.2486 107.44 34.126 107.162 33.8502C106.885 33.5743 106.762 33.2371 106.762 32.8386V6.66194Z" fill="#AFAFAF"/>
<path d="M112.402 6.66194C112.402 6.26346 112.525 5.92629 112.803 5.65043C113.08 5.37456 113.419 5.25195 113.82 5.25195H127.72C128.12 5.25195 128.459 5.37456 128.737 5.65043C129.014 5.92629 129.137 6.26346 129.137 6.66194C129.137 7.06041 129.014 7.39758 128.737 7.67345C128.459 7.94932 128.12 8.07193 127.72 8.07193H115.207V18.187H123.097C123.497 18.187 123.836 18.3097 124.114 18.5855C124.391 18.8614 124.514 19.1986 124.514 19.597C124.514 19.9955 124.391 20.3327 124.114 20.6085C123.836 20.8844 123.497 21.007 123.097 21.007H115.207V32.8386C115.207 33.2371 115.083 33.5743 114.806 33.8502C114.529 34.126 114.19 34.2486 113.789 34.2486C113.388 34.2486 113.049 34.126 112.772 33.8502C112.494 33.5743 112.371 33.2371 112.371 32.8386L112.402 6.66194Z" fill="#AFAFAF"/>
<path d="M132.281 8.07193C131.88 8.07193 131.541 7.94932 131.264 7.67345C130.987 7.39758 130.863 7.06041 130.863 6.66194C130.863 6.26346 130.987 5.92629 131.264 5.65043C131.541 5.37456 131.88 5.25195 132.281 5.25195H148.123C148.523 5.25195 148.862 5.37456 149.14 5.65043C149.417 5.92629 149.54 6.26346 149.54 6.66194C149.54 7.06041 149.417 7.39758 149.14 7.67345C148.862 7.94932 148.523 8.07193 148.123 8.07193H141.65V32.8386C141.65 33.2371 141.527 33.5743 141.25 33.8502C140.972 34.126 140.633 34.2486 140.233 34.2486C139.832 34.2486 139.493 34.126 139.216 33.8502C138.938 33.5743 138.815 33.2371 138.815 32.8386V8.07193H132.281Z" fill="#AFAFAF"/>
</g>
<defs>
<clipPath id="clip0_348_1377">
<rect width="148.555" height="38.4068" fill="white" transform="translate(0.986328 0.898438)"/>
</clipPath>
</defs>
</svg>
