<svg width="68" height="37" viewBox="0 0 68 37" fill="none" xmlns="http://www.w3.org/2000/svg">
<path d="M6.6123 23.5035L17.6861 19.4752V22.9857L10.2668 25.7969V30.5474L6.61755 31.8144L6.6123 23.5035ZM14.9924 3.93411C20.7367 3.93411 25.4571 7.8716 25.4571 13.1761V23.6715C25.2209 27.827 29.2744 31.215 33.9581 31.215C38.6417 31.215 42.3067 27.827 42.3067 23.667V12.018L38.6522 13.2851V23.667C38.6522 25.9468 36.5099 27.8043 33.9581 27.8043C31.401 27.8043 29.2272 25.9468 29.2272 23.667V13.1761C29.2272 6.19578 22.8685 0.523438 14.9924 0.523438C7.11636 0.523438 0.605469 6.19578 0.605469 13.1761V33.7219L4.61177 32.4275V13.1761C4.61177 8.07597 9.24816 3.93411 14.9924 3.93411ZM53.0549 31.215C57.8436 31.215 61.6189 27.827 61.6189 23.667V5.32381L57.9696 6.5909V23.667C57.9696 25.9059 55.6698 27.8043 53.0549 27.8043C50.4401 27.8043 48.3083 25.9059 48.3083 23.667V10.0697L44.302 11.3822V23.667C44.302 27.827 48.2663 31.215 53.0549 31.215ZM63.6194 4.67438V23.667C63.6194 28.7671 58.8832 32.9862 53.0339 32.9862C48.7598 32.9862 44.9426 30.7109 43.2571 27.5318C41.6084 30.7063 38.1376 32.9862 33.9423 32.9862C28.198 32.9862 23.5774 28.7671 23.5774 23.667V13.1761C23.5774 9.01606 19.6813 5.63718 14.9977 5.63718C10.3141 5.63718 6.61755 9.01606 6.61755 13.1761V21.4961L17.6913 17.4587V13.9845L10.2615 16.8184V13.1761C10.2615 10.8962 12.4143 9.04785 14.9714 9.04785C17.392 9.04785 19.7338 10.8554 19.7338 13.1761C19.8074 13.2942 19.7286 23.6715 19.7286 23.6715C19.7969 30.6019 26.082 36.4377 33.916 36.4377C37.5548 36.4377 40.7892 34.9844 43.3148 32.9907C45.8719 34.9844 49.3427 36.4377 53.0339 36.4377C61.015 36.4377 67.2739 30.6518 67.2739 23.6715V3.45271L63.6194 4.67438Z" fill="#AFAFAF"/>
</svg>
