<svg width="127" height="40" viewBox="0 0 127 40" fill="none" xmlns="http://www.w3.org/2000/svg">
<g clip-path="url(#clip0_348_1350)">
<path d="M2.26265 1.19531H10.4728C11.1696 1.19531 11.7452 1.76679 11.7452 2.45859V10.6097C11.7452 11.3015 11.1696 11.873 10.4728 11.873H2.26265C1.56585 11.873 0.990234 11.3015 0.990234 10.6097V2.42851C0.990234 1.73672 1.56585 1.19531 2.26265 1.19531Z" stroke="#AFAFAF" stroke-width="2.5" stroke-miterlimit="10"/>
<path d="M14.4111 1.19531H22.6212C23.318 1.19531 23.8936 1.76679 23.8936 2.45859V10.6097C23.8936 11.3015 23.318 11.873 22.6212 11.873H14.4111C13.7143 11.873 13.1387 11.3015 13.1387 10.6097V2.42851C13.1387 1.73672 13.7143 1.19531 14.4111 1.19531Z" stroke="#AFAFAF" stroke-width="2.5" stroke-miterlimit="10"/>
<path d="M26.5595 1.19531H34.7696C35.4664 1.19531 36.042 1.76679 36.042 2.45859V10.6097C36.042 11.3015 35.4664 11.873 34.7696 11.873H26.5595C25.8627 11.873 25.2871 11.3015 25.2871 10.6097V2.42851C25.2871 1.73672 25.8627 1.19531 26.5595 1.19531Z" stroke="#AFAFAF" stroke-width="2.5" stroke-miterlimit="10"/>
<path d="M2.26265 13.2871H10.4728C11.1696 13.2871 11.7452 13.8586 11.7452 14.5504V22.7015C11.7452 23.3933 11.1696 23.9648 10.4728 23.9648H2.26265C1.56585 23.9648 0.990234 23.3933 0.990234 22.7015V14.5504C0.990234 13.8586 1.56585 13.2871 2.26265 13.2871Z" stroke="#AFAFAF" stroke-width="2.5" stroke-miterlimit="10"/>
<path d="M14.4111 13.2871H22.6212C23.318 13.2871 23.8936 13.8586 23.8936 14.5504V22.7015C23.8936 23.3933 23.318 23.9648 22.6212 23.9648H14.4111C13.7143 23.9648 13.1387 23.3933 13.1387 22.7015V14.5504C13.1387 13.8586 13.7143 13.2871 14.4111 13.2871Z" stroke="#AFAFAF" stroke-width="2.5" stroke-miterlimit="10"/>
<path d="M26.5595 13.2871H34.7696C35.4664 13.2871 36.042 13.8586 36.042 14.5504V22.7015C36.042 23.3933 35.4664 23.9648 34.7696 23.9648H26.5595C25.8627 23.9648 25.2871 23.3933 25.2871 22.7015V14.5504C25.2871 13.8586 25.8627 13.2871 26.5595 13.2871Z" stroke="#AFAFAF" stroke-width="2.5" stroke-miterlimit="10"/>
<path d="M2.26265 25.3789H10.4728C11.1696 25.3789 11.7452 25.9504 11.7452 26.6422V34.7933C11.7452 35.4851 11.1696 36.0566 10.4728 36.0566H2.26265C1.56585 36.0566 0.990234 35.4851 0.990234 34.7933V26.6422C0.990234 25.9504 1.56585 25.3789 2.26265 25.3789Z" stroke="#AFAFAF" stroke-width="2.5" stroke-miterlimit="10"/>
<path d="M14.4111 25.3789H22.6212C23.318 25.3789 23.8936 25.9504 23.8936 26.6422V34.7933C23.8936 35.4851 23.318 36.0566 22.6212 36.0566H14.4111C13.7143 36.0566 13.1387 35.4851 13.1387 34.7933V26.6422C13.169 25.9504 13.7143 25.3789 14.4111 25.3789Z" stroke="#AFAFAF" stroke-width="2.5" stroke-miterlimit="10"/>
<path d="M26.5595 25.3789H34.7696C35.4664 25.3789 36.042 25.9504 36.042 26.6422V34.7933C36.042 35.4851 35.4664 36.0566 34.7696 36.0566H26.5595C25.8627 36.0566 25.2871 35.4851 25.2871 34.7933V26.6422C25.2871 25.9504 25.8627 25.3789 26.5595 25.3789Z" stroke="#AFAFAF" stroke-width="2.5" stroke-miterlimit="10"/>
<path d="M51.2802 8.32301C51.5528 8.14255 51.7952 7.932 51.977 7.69138C52.4314 7.14997 52.6435 6.45818 52.6435 5.55584V5.25506C52.6435 3.96171 52.189 2.99921 51.3105 2.27734C50.4319 1.58555 49.1595 1.22461 47.4932 1.22461H42.0703V15.7523H48.0688C49.1898 15.7523 50.1592 15.6019 50.9166 15.271C51.674 14.9402 52.2496 14.489 52.6435 13.8874C53.0373 13.2859 53.2494 12.5339 53.2494 11.6917V11.421C53.2494 10.5187 53.0373 9.76676 52.5829 9.25543C52.2496 8.8945 51.8255 8.56364 51.2802 8.32301ZM47.7053 3.78124C48.3112 3.78124 48.7656 3.93163 49.0383 4.26249C49.311 4.56327 49.4624 5.01444 49.4624 5.55584C49.4624 6.09724 49.311 6.48826 49.0383 6.81912C48.7656 7.11989 48.3112 7.30036 47.7053 7.30036H45.2513V3.78124H47.7053ZM49.6139 12.8347C49.311 13.1355 48.8565 13.316 48.2506 13.316H45.2513V9.7066H48.2506C48.8565 9.7066 49.311 9.85699 49.6139 10.1578C49.9169 10.4586 50.0683 10.9097 50.0683 11.4812C50.0683 12.0527 49.9169 12.5039 49.6139 12.8347Z" fill="#AFAFAF"/>
<path d="M64.6402 15.723V4.95508H61.4894V11.2715C61.4894 11.873 61.3077 12.3543 60.9441 12.7152C60.5806 13.0761 60.1261 13.2566 59.5505 13.2566C58.9749 13.2566 58.5508 13.0761 58.2175 12.7453C57.8843 12.4144 57.7328 11.9332 57.7328 11.3617V4.95508H54.582V11.1812C54.582 12.8054 54.9153 14.0086 55.5818 14.8207C56.2483 15.6328 57.2177 16.0238 58.4599 16.0238H58.6113C59.4293 16.0238 60.1261 15.8433 60.6714 15.4824C61.2168 15.1214 61.6409 14.58 61.9136 13.8582C62.0045 13.6476 62.065 13.407 62.1256 13.1664V15.6628L64.6402 15.723Z" fill="#AFAFAF"/>
<path d="M72.3358 13.4957C71.9722 13.6761 71.5178 13.7964 70.9725 13.7964C70.2454 13.7964 69.7001 13.6761 69.3365 13.4054C68.973 13.1347 68.7609 12.8339 68.7003 12.5031H65.8828C65.9434 13.6461 66.3978 14.5183 67.2764 15.15C68.155 15.7816 69.3668 16.0824 70.8816 16.0824C71.851 16.0824 72.6993 15.932 73.4264 15.6613C74.1535 15.3906 74.6988 14.9695 75.0927 14.4582C75.4865 13.9168 75.6986 13.3152 75.6986 12.5933C75.6986 11.6007 75.335 10.8187 74.6079 10.2172C73.8808 9.6156 72.8205 9.25467 71.5178 9.13435L70.6695 9.04412C70.0939 8.98396 69.7001 8.86365 69.4577 8.71326C69.2153 8.56287 69.0941 8.32225 69.0941 8.02147C69.0941 7.72069 69.2456 7.44999 69.5183 7.26952C69.8212 7.08905 70.1848 6.99882 70.6998 6.99882C71.3057 6.99882 71.7905 7.11913 72.0934 7.35975C72.3964 7.60038 72.5781 7.90116 72.6387 8.26209H75.4562C75.4259 7.11913 74.9715 6.21679 74.1232 5.61523C73.2749 5.01367 72.1237 4.71289 70.7604 4.71289C69.8818 4.71289 69.1244 4.8332 68.4276 5.1039C67.7611 5.37461 67.2158 5.73554 66.8523 6.27695C66.4887 6.81835 66.2767 7.41991 66.2767 8.17186C66.2767 9.0742 66.6099 9.82615 67.2461 10.4277C67.8823 11.0293 68.8821 11.3902 70.1848 11.5105L71.0331 11.6007C71.7602 11.691 72.2449 11.8113 72.5175 11.9918C72.7902 12.1722 72.9417 12.4429 72.9417 12.7437C72.8811 13.0445 72.6993 13.3152 72.3358 13.4957Z" fill="#AFAFAF"/>
<path d="M79.1233 3.90155C79.7292 3.90155 80.1534 3.75116 80.426 3.45038C80.6987 3.1496 80.8502 2.75858 80.8502 2.27734C80.8502 1.79609 80.6987 1.40507 80.426 1.07422C80.1534 0.773437 79.699 0.623047 79.1233 0.623047C78.5477 0.623047 78.0933 0.773437 77.8206 1.07422C77.548 1.375 77.3965 1.76601 77.3965 2.27734C77.3965 2.78866 77.548 3.1496 77.8206 3.45038C78.0933 3.75116 78.5174 3.90155 79.1233 3.90155Z" fill="#AFAFAF"/>
<path d="M77.8809 15.723H81.062V7.27108V4.95508H77.8809H76.457V7.27108H77.8809V15.723Z" fill="#AFAFAF"/>
<path d="M89.2107 4.62305H89.0592C88.2412 4.62305 87.5141 4.80351 86.9385 5.16445C86.3629 5.52539 85.9388 6.06679 85.6358 6.81874C85.5449 7.08944 85.454 7.39022 85.3934 7.691V4.9539H82.8789V15.6917H86.0599V9.4656C86.0599 8.86404 86.2417 8.3828 86.6053 7.99178C86.9688 7.63085 87.4535 7.4203 88.0292 7.4203C88.6048 7.4203 89.0592 7.60077 89.4228 7.9617C89.7863 8.32264 89.9378 8.80389 89.9378 9.37537V15.6917H93.0885V9.58592C93.0885 7.93163 92.7553 6.69843 92.0888 5.85624C91.4526 5.04414 90.4831 4.62305 89.2107 4.62305Z" fill="#AFAFAF"/>
<path d="M102.783 5.37578C101.995 4.86445 100.995 4.59375 99.8439 4.59375C98.9653 4.59375 98.1776 4.74414 97.4808 5.04492C96.784 5.3457 96.2084 5.76679 95.754 6.27812C95.2995 6.78944 94.936 7.391 94.6936 8.05272C94.4513 8.71443 94.3301 9.40623 94.3301 10.1281V10.5191C94.3301 11.2109 94.4513 11.9027 94.6936 12.5644C94.936 13.2261 95.2995 13.8277 95.754 14.339C96.2084 14.8804 96.8143 15.3015 97.5111 15.6023C98.2079 15.9031 99.0259 16.0835 99.9651 16.0835C100.904 16.0835 101.662 15.9332 102.389 15.6023C103.086 15.3015 103.661 14.8503 104.116 14.2789C104.57 13.7074 104.873 13.0757 105.055 12.3539H102.146C102.025 12.6847 101.753 12.9554 101.389 13.166C101.025 13.3765 100.541 13.4968 99.9651 13.4968C99.3289 13.4968 98.8138 13.3765 98.42 13.1058C98.0261 12.8351 97.7232 12.4742 97.5414 11.9929C97.4505 11.7222 97.3596 11.4515 97.3293 11.1207H105.236V10.0679C105.236 9.07537 105.024 8.17303 104.6 7.36092C104.176 6.54882 103.57 5.8871 102.783 5.37578ZM97.5717 8.59412C97.7535 8.11287 98.0564 7.75194 98.4503 7.51131C98.8441 7.27069 99.2986 7.15038 99.8439 7.15038C100.389 7.15038 100.844 7.27069 101.207 7.51131C101.571 7.75194 101.843 8.11287 102.025 8.56404C102.116 8.80467 102.207 9.07537 102.237 9.37615H97.3596C97.3899 9.07537 97.4808 8.83475 97.5717 8.59412Z" fill="#AFAFAF"/>
<path d="M114.871 10.1586C114.144 9.55701 113.083 9.19607 111.78 9.07576L110.932 8.98553C110.357 8.92537 109.963 8.80506 109.72 8.65467C109.478 8.50428 109.357 8.26366 109.357 7.96288C109.357 7.6621 109.508 7.39139 109.781 7.21093C110.084 7.03046 110.447 6.94022 110.962 6.94022C111.568 6.94022 112.053 7.06054 112.356 7.30116C112.659 7.54178 112.841 7.84256 112.901 8.2035H115.719C115.689 7.06054 115.234 6.1582 114.386 5.55664C113.538 4.95508 112.417 4.6543 110.993 4.6543C110.114 4.6543 109.357 4.77461 108.66 5.04531C107.994 5.31601 107.448 5.67695 107.085 6.21835C106.721 6.75976 106.509 7.36132 106.509 8.11327C106.509 9.0156 106.842 9.76756 107.478 10.3691C108.115 10.9707 109.114 11.3316 110.417 11.4519L111.265 11.5422C111.993 11.6324 112.477 11.7527 112.75 11.9332C113.023 12.1136 113.174 12.3843 113.174 12.6851C113.174 13.0461 112.992 13.3168 112.629 13.4972C112.265 13.6777 111.811 13.798 111.265 13.798C110.538 13.798 109.993 13.6777 109.629 13.407C109.266 13.1363 109.054 12.8355 108.993 12.5047H106.176C106.236 13.6476 106.691 14.5199 107.569 15.1515C108.448 15.7832 109.66 16.0839 111.175 16.0839C112.144 16.0839 112.992 15.9335 113.719 15.6628C114.446 15.3921 114.992 14.971 115.386 14.4597C115.779 13.9183 115.992 13.3168 115.992 12.5949C115.961 11.5422 115.598 10.7601 114.871 10.1586Z" fill="#AFAFAF"/>
<path d="M125.595 10.1586C124.868 9.55701 123.808 9.19607 122.505 9.07576L121.657 8.98553C121.081 8.92537 120.687 8.80506 120.445 8.65467C120.203 8.50428 120.081 8.26366 120.081 7.96288C120.081 7.6621 120.233 7.39139 120.506 7.21093C120.808 7.03046 121.172 6.94022 121.687 6.94022C122.293 6.94022 122.778 7.06054 123.081 7.30116C123.384 7.54178 123.565 7.84256 123.626 8.2035H126.443C126.413 7.06054 125.959 6.1582 125.11 5.55664C124.262 4.95508 123.141 4.6543 121.748 4.6543C120.869 4.6543 120.112 4.77461 119.415 5.04531C118.748 5.31601 118.203 5.67695 117.84 6.21835C117.476 6.75976 117.264 7.36132 117.264 8.11327C117.264 9.0156 117.597 9.76756 118.233 10.3691C118.87 10.9707 119.869 11.3316 121.172 11.4519L122.02 11.5422C122.747 11.6324 123.232 11.7527 123.505 11.9332C123.777 12.1136 123.929 12.3843 123.929 12.6851C123.929 13.0461 123.747 13.3168 123.384 13.4972C123.02 13.6777 122.566 13.798 122.02 13.798C121.293 13.798 120.748 13.6777 120.384 13.407C120.021 13.1363 119.809 12.8355 119.778 12.5047H116.961C117.022 13.6476 117.476 14.5199 118.355 15.1515C119.233 15.7832 120.445 16.0839 121.96 16.0839C122.929 16.0839 123.777 15.9335 124.505 15.6628C125.232 15.3921 125.777 14.971 126.171 14.4597C126.565 13.9183 126.777 13.3168 126.777 12.5949C126.716 11.5422 126.322 10.7601 125.595 10.1586Z" fill="#AFAFAF"/>
<path d="M51.5534 26.3691C51.0384 25.8578 50.4022 25.4668 49.6751 25.166C48.948 24.8652 48.0997 24.7148 47.1908 24.7148C46.282 24.7148 45.464 24.8652 44.7369 25.166C44.0098 25.4668 43.3736 25.8578 42.8586 26.3691C42.3435 26.8805 41.9497 27.482 41.677 28.1437C41.4044 28.8055 41.2832 29.5273 41.2832 30.2793V30.7304C41.2832 31.4523 41.4044 32.1742 41.677 32.8058C41.9497 33.4375 42.3133 34.039 42.8283 34.5503C43.3433 35.0617 43.9492 35.4527 44.7066 35.7535C45.4337 36.0542 46.282 36.2046 47.2514 36.2046C48.2209 36.2046 49.0692 36.0542 49.7963 35.7535C50.5234 35.4527 51.1596 35.0617 51.6746 34.5503C52.1896 34.039 52.5532 33.4675 52.8258 32.8058C53.0985 32.1441 53.2197 31.4523 53.2197 30.7304V30.2793C53.2197 29.5273 53.0682 28.8355 52.7955 28.1437C52.4623 27.482 52.0684 26.8805 51.5534 26.3691ZM49.6751 32.084C49.463 32.5652 49.1298 32.9261 48.7359 33.1968C48.3421 33.4675 47.7968 33.5879 47.1908 33.5879C46.5849 33.5879 46.1002 33.4675 45.6761 33.1968C45.2519 32.9261 44.949 32.5652 44.7369 32.084C44.5248 31.6027 44.4339 31.0914 44.4339 30.5199C44.4339 29.9183 44.5551 29.3769 44.7672 28.8957C44.9793 28.4144 45.3125 28.0535 45.7367 27.7828C46.1608 27.5121 46.6455 27.3617 47.2514 27.3617C47.8573 27.3617 48.3421 27.482 48.7662 27.7828C49.1904 28.0535 49.4933 28.4144 49.7357 28.8957C49.9477 29.3469 50.0689 29.8883 50.0689 30.5199C50.0083 31.0914 49.8871 31.6027 49.6751 32.084Z" fill="#AFAFAF"/>
<path d="M58.0969 24.8066C58.0969 24.4457 58.1877 24.175 58.3998 23.9945C58.6119 23.814 58.8845 23.6937 59.2178 23.6937H60.7326V21.3477H59.339C57.9454 21.3477 56.9153 21.6484 56.1882 22.25C55.4611 22.8516 55.1279 23.784 55.1279 25.0172V25.3179H53.8555V27.6039H55.1279V35.8452H58.0666V27.6039H60.884V25.3179H58.0666V24.8066H58.0969Z" fill="#AFAFAF"/>
<path d="M69.0045 21.5273L64.248 35.8445H67.4897L68.6409 32.2953H74.6697L75.8513 35.8445H79.2141L74.2456 21.5273H69.0045ZM69.4892 29.6183L71.2463 24.1441H71.9734L73.7912 29.6183H69.4892Z" fill="#AFAFAF"/>
<path d="M90.3923 26.3394C89.9379 25.8582 89.4229 25.4672 88.817 25.1965C88.2111 24.9258 87.5143 24.7754 86.7569 24.7754C85.9086 24.7754 85.1512 24.9559 84.4847 25.3469C83.8182 25.7379 83.2729 26.2793 82.879 27.0312C82.7579 27.2719 82.6367 27.5726 82.5458 27.8433V25.1062H80.0312V39.7843H83.182V34.5207C83.5455 35.032 84 35.4531 84.5453 35.7238C85.1815 36.0546 85.9389 36.2351 86.7569 36.2351C87.5748 36.2351 88.2414 36.0847 88.8776 35.814C89.4835 35.5433 89.9985 35.1523 90.4226 34.641C90.8468 34.1296 91.18 33.5582 91.3921 32.8964C91.6042 32.2347 91.7254 31.5129 91.7254 30.7308V30.2797C91.7254 29.4976 91.6042 28.7758 91.3921 28.114C91.18 27.4523 90.8468 26.8207 90.3923 26.3394ZM88.2414 32.0843C88.0293 32.5656 87.696 32.9265 87.3022 33.1972C86.9083 33.4679 86.4236 33.5882 85.8783 33.5882C85.4239 33.5882 84.9997 33.498 84.5756 33.2875C84.1515 33.0769 83.8182 32.7761 83.5455 32.3851C83.2729 31.9941 83.1517 31.5129 83.1517 30.9414V30.2195C83.1517 29.6179 83.2729 29.1367 83.5455 28.7156C83.8182 28.2945 84.1515 27.9937 84.5756 27.7531C84.9997 27.5426 85.4542 27.4223 85.9086 27.4223C86.4539 27.4223 86.9386 27.5426 87.3325 27.8133C87.7263 28.084 88.0293 28.4148 88.2716 28.8961C88.4837 29.3472 88.6049 29.8886 88.6049 30.4902C88.6049 31.0918 88.4534 31.6031 88.2414 32.0843Z" fill="#AFAFAF"/>
<path d="M103.51 26.3394C103.055 25.8582 102.54 25.4672 101.934 25.1965C101.328 24.9258 100.631 24.7754 99.8741 24.7754C99.0258 24.7754 98.2684 24.9559 97.6019 25.3469C96.9354 25.7379 96.3901 26.2793 95.9962 27.0312C95.875 27.2719 95.7539 27.5726 95.663 27.8433V25.1062H93.1484V39.7843H96.2992V34.5207C96.6627 35.032 97.1172 35.4531 97.6625 35.7238C98.2987 36.0546 99.0561 36.2351 99.8741 36.2351C100.692 36.2351 101.359 36.0847 101.995 35.814C102.601 35.5433 103.116 35.1523 103.54 34.641C103.964 34.1296 104.297 33.5582 104.509 32.8964C104.721 32.2347 104.843 31.5129 104.843 30.7308V30.2797C104.843 29.4976 104.721 28.7758 104.509 28.114C104.297 27.4523 103.934 26.8207 103.51 26.3394ZM101.328 32.0843C101.116 32.5656 100.783 32.9265 100.389 33.1972C99.9952 33.4679 99.5105 33.5882 98.9652 33.5882C98.5108 33.5882 98.0866 33.498 97.6625 33.2875C97.2383 33.0769 96.9051 32.7761 96.6324 32.3851C96.3598 31.9941 96.2386 31.5129 96.2386 30.9414V30.2195C96.2386 29.6179 96.3598 29.1367 96.6324 28.7156C96.9051 28.2945 97.2383 27.9937 97.6625 27.7531C98.0866 27.5426 98.5411 27.4223 98.9955 27.4223C99.5408 27.4223 100.026 27.5426 100.419 27.8133C100.813 28.084 101.116 28.4148 101.359 28.8961C101.571 29.3472 101.692 29.8886 101.692 30.4902C101.692 31.0918 101.571 31.6031 101.328 32.0843Z" fill="#AFAFAF"/>
<path d="M114.114 30.2804C113.387 29.6789 112.326 29.3179 111.024 29.1676L110.175 29.0773C109.6 29.0172 109.206 28.8969 108.964 28.7465C108.721 28.5961 108.6 28.3555 108.6 28.0547C108.6 27.7539 108.751 27.4832 109.024 27.3027C109.297 27.1223 109.691 27.032 110.206 27.032C110.812 27.032 111.296 27.1523 111.599 27.393C111.902 27.6336 112.084 27.9344 112.145 28.2953H114.962C114.932 27.1523 114.477 26.25 113.629 25.6484C112.781 25.0469 111.66 24.7461 110.266 24.7461C109.388 24.7461 108.63 24.8664 107.933 25.1371C107.267 25.4078 106.722 25.7988 106.358 26.2801C105.995 26.7613 105.782 27.423 105.782 28.175C105.782 29.0773 106.116 29.8293 106.752 30.4308C107.388 31.0324 108.388 31.3933 109.691 31.5136L110.539 31.6039C111.266 31.6941 111.751 31.8144 112.023 31.9949C112.296 32.1754 112.448 32.4461 112.448 32.7468C112.448 33.1078 112.266 33.3785 111.902 33.5589C111.539 33.7394 111.084 33.8296 110.539 33.8296C109.812 33.8296 109.266 33.7093 108.903 33.4386C108.539 33.1679 108.327 32.8672 108.267 32.5363H105.449C105.51 33.6793 105.964 34.5515 106.843 35.1832C107.721 35.8148 108.933 36.1156 110.448 36.1156C111.417 36.1156 112.266 35.9652 112.993 35.6945C113.72 35.4238 114.265 35.0027 114.659 34.4914C115.053 33.95 115.265 33.3484 115.265 32.6265C115.235 31.6941 114.871 30.882 114.114 30.2804Z" fill="#AFAFAF"/>
</g>
<defs>
<clipPath id="clip0_348_1350">
<rect width="126.09" height="39.1315" fill="white" transform="translate(0.626953 0.623047)"/>
</clipPath>
</defs>
</svg>
