<svg width="61" height="60" viewBox="0 0 61 60" fill="none" xmlns="http://www.w3.org/2000/svg">
<path d="M38.1165 8.42007C38.1151 8.61854 38.0356 8.80847 37.8952 8.94882C37.7549 9.08916 37.565 9.16864 37.3665 9.17007H21.1165C20.9176 9.17007 20.7268 9.09106 20.5862 8.9504C20.4455 8.80975 20.3665 8.61899 20.3665 8.42007C20.3665 8.22116 20.4455 8.0304 20.5862 7.88974C20.7268 7.74909 20.9176 7.67007 21.1165 7.67007H37.3665C37.465 7.66994 37.5626 7.68925 37.6537 7.7269C37.7447 7.76454 37.8275 7.81978 37.8971 7.88945C37.9668 7.95912 38.022 8.04185 38.0597 8.13291C38.0973 8.22396 38.1166 8.32154 38.1165 8.42007ZM27.6765 16.8001H11.3065C11.1076 16.8001 10.9168 16.8791 10.7762 17.0197C10.6355 17.1604 10.5565 17.3512 10.5565 17.5501C10.5565 17.749 10.6355 17.9398 10.7762 18.0804C10.9168 18.2211 11.1076 18.3001 11.3065 18.3001H27.6765C27.8754 18.3001 28.0662 18.2211 28.2068 18.0804C28.3475 17.9398 28.4265 17.749 28.4265 17.5501C28.4265 17.3512 28.3475 17.1604 28.2068 17.0197C28.0662 16.8791 27.8754 16.8001 27.6765 16.8001ZM27.6765 25.9201H11.3065C11.1076 25.9201 10.9168 25.9991 10.7762 26.1397C10.6355 26.2804 10.5565 26.4712 10.5565 26.6701C10.5565 26.869 10.6355 27.0598 10.7762 27.2004C10.9168 27.3411 11.1076 27.4201 11.3065 27.4201H27.6765C27.8754 27.4201 28.0662 27.3411 28.2068 27.2004C28.3475 27.0598 28.4265 26.869 28.4265 26.6701C28.4265 26.4712 28.3475 26.2804 28.2068 26.1397C28.0662 25.9991 27.8754 25.9201 27.6765 25.9201ZM27.6765 35.0501H11.3065C11.1076 35.0501 10.9168 35.1291 10.7762 35.2697C10.6355 35.4104 10.5565 35.6012 10.5565 35.8001C10.5565 35.999 10.6355 36.1898 10.7762 36.3304C10.9168 36.4711 11.1076 36.5501 11.3065 36.5501H27.6765C27.8754 36.5501 28.0662 36.4711 28.2068 36.3304C28.3475 36.1898 28.4265 35.999 28.4265 35.8001C28.4265 35.6012 28.3475 35.4104 28.2068 35.2697C28.0662 35.1291 27.8754 35.0501 27.6765 35.0501ZM27.6765 44.1801H11.3065C11.1076 44.1801 10.9168 44.2591 10.7762 44.3997C10.6355 44.5404 10.5565 44.7312 10.5565 44.9301C10.5565 45.129 10.6355 45.3198 10.7762 45.4604C10.9168 45.6011 11.1076 45.6801 11.3065 45.6801H27.6765C27.8754 45.6801 28.0662 45.6011 28.2068 45.4604C28.3475 45.3198 28.4265 45.129 28.4265 44.9301C28.4265 44.7312 28.3475 44.5404 28.2068 44.3997C28.0662 44.2591 27.8754 44.1801 27.6765 44.1801ZM51.8665 40.7701C51.8869 40.8348 51.8971 40.9022 51.8965 40.9701V55.8901C51.8972 56.4239 51.7927 56.9526 51.589 57.4461C51.3853 57.9395 51.0864 58.388 50.7094 58.7659C50.3324 59.1439 49.8847 59.4438 49.3917 59.6487C48.8988 59.8536 48.3703 59.9594 47.8365 59.9601H15.8365C15.3027 59.9594 14.7742 59.8536 14.2813 59.6487C13.7883 59.4438 13.3406 59.1439 12.9636 58.7659C12.5866 58.388 12.2877 57.9395 12.084 57.4461C11.8803 56.9526 11.7758 56.4239 11.7765 55.8901V53.0701H8.2265C7.1484 53.0687 6.11499 52.6392 5.35359 51.8759C4.5922 51.1126 4.16519 50.0782 4.1665 49.0001L4.15027 11.8008C4.15011 11.4319 4.22285 11.0666 4.36431 10.7259C4.50578 10.3852 4.71317 10.0758 4.97458 9.81548L13.5965 1.23007C13.9699 0.851179 14.4152 0.550728 14.9064 0.346372C15.3975 0.142017 15.9245 0.0378775 16.4565 0.0400731H40.2365C41.3146 0.0414142 42.348 0.470966 43.1094 1.23424C43.8708 1.99751 44.2978 3.03197 44.2965 4.11007V6.93007H47.8365C48.9146 6.93142 49.948 7.36097 50.7094 8.12424C51.4708 8.88751 51.8978 9.92197 51.8965 11.0001V19.2501C53.5394 20.5227 54.8687 22.155 55.7823 24.0216C56.6959 25.8881 57.1694 27.9393 57.1665 30.0174C57.1636 32.0956 56.6844 34.1454 55.7656 36.0094C54.8468 37.8734 53.513 39.502 51.8665 40.7701ZM6.7765 10.1201H14.3565V2.58007L6.7765 10.1201ZM50.3965 41.7601C48.3225 42.9761 45.9607 43.6149 43.5565 43.6101C39.9469 43.6101 36.4851 42.1762 33.9328 39.6238C31.3804 37.0714 29.9465 33.6097 29.9465 30.0001C29.9465 26.3905 31.3804 22.9287 33.9328 20.3763C36.4851 17.824 39.9469 16.3901 43.5565 16.3901C45.9607 16.3853 48.3225 17.024 50.3965 18.2401V11.0001C50.3973 10.32 50.1282 9.66732 49.6482 9.18546C49.1682 8.70361 48.5166 8.43193 47.8365 8.43007H44.2965V13.8501C44.2965 14.049 44.2175 14.2398 44.0768 14.3804C43.9362 14.5211 43.7454 14.6001 43.5465 14.6001C43.3476 14.6001 43.1568 14.5211 43.0162 14.3804C42.8755 14.2398 42.7965 14.049 42.7965 13.8501V4.11007C42.7973 3.42996 42.5281 2.77734 42.0481 2.29549C41.5682 1.81365 40.9166 1.54196 40.2365 1.54007H16.4565C16.2536 1.53579 16.0512 1.56277 15.8565 1.62007V10.8701C15.8551 11.0685 15.7756 11.2585 15.6352 11.3988C15.4949 11.5392 15.305 11.6186 15.1065 11.6201H5.7565C5.69651 11.8383 5.66623 12.0637 5.6665 12.2901V49.0001C5.66573 49.6802 5.93488 50.3328 6.41485 50.8146C6.89483 51.2965 7.54639 51.5682 8.2265 51.5701H40.2365C40.9166 51.5682 41.5682 51.2965 42.0481 50.8147C42.5281 50.3328 42.7973 49.6802 42.7965 49.0001V46.1501C42.7965 45.9512 42.8755 45.7604 43.0162 45.6197C43.1568 45.4791 43.3476 45.4001 43.5465 45.4001C43.7454 45.4001 43.9362 45.4791 44.0768 45.6197C44.2175 45.7604 44.2965 45.9512 44.2965 46.1501V49.0001C44.2978 50.0782 43.8708 51.1126 43.1094 51.8759C42.348 52.6392 41.3146 53.0687 40.2365 53.0701H13.2765V55.8901C13.2757 56.5702 13.5449 57.2228 14.0248 57.7047C14.5048 58.1865 15.1564 58.4582 15.8365 58.4601H46.5465V48.6801C46.5465 48.4812 46.6255 48.2904 46.7662 48.1497C46.9068 48.0091 47.0976 47.9301 47.2965 47.9301C47.4954 47.9301 47.6862 48.0091 47.8268 48.1497C47.9675 48.2904 48.0465 48.4812 48.0465 48.6801V58.4501C48.6876 58.395 49.2846 58.1015 49.7198 57.6275C50.1549 57.1535 50.3964 56.5335 50.3965 55.8901V41.7601ZM55.6665 30.0001C55.6665 27.6049 54.9563 25.2636 53.6256 23.2721C52.2949 21.2806 50.4036 19.7285 48.1908 18.8119C45.978 17.8953 43.5431 17.6555 41.194 18.1228C38.8448 18.59 36.687 19.7434 34.9934 21.437C33.2998 23.1306 32.1465 25.2884 31.6792 27.6375C31.2119 29.9866 31.4517 32.4216 32.3683 34.6344C33.2849 36.8472 34.8371 38.7385 36.8285 40.0692C38.82 41.3998 41.1614 42.1101 43.5565 42.1101C46.7674 42.1073 49.846 40.8305 52.1165 38.5601C54.387 36.2896 55.6637 33.211 55.6665 30.0001ZM51.4065 30.0101C51.4036 30.1281 51.3731 30.2438 51.3175 30.348C51.262 30.4521 51.1829 30.5419 51.0865 30.6101L45.1065 34.8401C44.9933 34.918 44.8616 34.9646 44.7246 34.9751C44.5876 34.9856 44.4503 34.9597 44.3265 34.9001C44.2036 34.8363 44.1005 34.7402 44.0282 34.6221C43.956 34.5041 43.9173 34.3685 43.9165 34.2301V32.0301C41.3773 32.1998 38.9498 33.138 36.9565 34.7201C36.8396 34.8212 36.6944 34.8841 36.5406 34.9002C36.3869 34.9163 36.2318 34.8848 36.0965 34.8101C35.9597 34.7339 35.8503 34.6166 35.7839 34.4748C35.7175 34.333 35.6974 34.1739 35.7265 34.0201C36.5465 29.2801 41.0665 27.9901 43.9165 27.9301V25.6901C43.9174 25.5516 43.956 25.4161 44.0282 25.298C44.1005 25.1799 44.2036 25.0838 44.3265 25.0201C44.4503 24.9604 44.5876 24.9346 44.7246 24.9451C44.8615 24.9557 44.9933 25.0022 45.1065 25.0801L51.0865 29.3901C51.185 29.4608 51.2654 29.5538 51.321 29.6616C51.3766 29.7694 51.4059 29.8888 51.4065 30.0101ZM49.3565 30.0001L45.4165 27.1601V28.6901C45.4179 28.7926 45.3983 28.8944 45.3587 28.989C45.3191 29.0836 45.2605 29.1691 45.1865 29.2401C45.1132 29.312 45.0252 29.3671 44.9285 29.4016C44.8318 29.4361 44.7288 29.4493 44.6265 29.4401C44.4065 29.4301 39.9565 29.1901 38.0065 32.1801C40.0703 31.1196 42.3469 30.5385 44.6665 30.4801C44.8639 30.4849 45.0519 30.5655 45.1915 30.7051C45.3311 30.8447 45.4117 31.0327 45.4165 31.2301V32.7801L49.3565 30.0001Z" fill="black"/>
</svg>
