<?xml version="1.0" encoding="utf-8"?>
<!-- Generator: Adobe Illustrator 25.2.1, SVG Export Plug-In . SVG Version: 6.00 Build 0)  -->
<svg version="1.1" id="Layer_1" xmlns="http://www.w3.org/2000/svg" xmlns:xlink="http://www.w3.org/1999/xlink" x="0px" y="0px"
	 viewBox="0 0 985 304" style="enable-background:new 0 0 985 304;" xml:space="preserve">
<style type="text/css">
	.st0{fill-rule:evenodd;clip-rule:evenodd;fill:#AFAFAF;}
</style>
<path class="st0" d="M94.8,104.5c2.5-2.2,3.8-3.9,1.8-3.9c-4.2,0-29.6,3.8-34.9-15.5C56.5,65.9,84.5,7.9,85.6,5.4
	C86.6,3,84.5,0,81.4,0c-3,0-5.2,3.3-5.6,3.7C47.2,39.6,7.3,84.4,2.1,103.7c-13,48.9,37.3,68.8,69.1,72.4c0.6,0.1,0.8-0.4,0.8-0.7
	V158C72.1,134.6,80.8,117,94.8,104.5"/>
<path class="st0" d="M890.2,104.5c-2.5-2.2-3.8-3.9-1.8-3.9c4.2,0,29.6,3.8,34.9-15.5c5.2-19.2-22.8-77.2-23.9-79.7
	c-1-2.4,1.1-5.4,4.2-5.4c3,0,5.2,3.3,5.6,3.7c28.6,35.9,68.6,80.7,73.7,100.1c13,48.9-37.3,68.8-69.1,72.4c-0.6,0.1-0.8-0.4-0.8-0.7
	V158C912.9,134.6,904.2,117,890.2,104.5"/>
<path class="st0" d="M856.8,229.4c0,19-25.4,29.8-41.9,29.8c-17.7,0-42.7-10.8-42.7-29.8v-66.9c0-19,25-27.9,42.7-27.9
	c16.5,0,41.9,8.9,41.9,27.9V229.4z M814.9,93.2c-39.2,0.4-84.9,23.2-84.9,69.3v70.1c0,46.8,45.7,68.9,84.9,69.3
	c38.4-0.4,84.1-22.5,84.1-69.3v-70.1C899,116.4,853.3,93.6,814.9,93.2L814.9,93.2z"/>
<path class="st0" d="M561.7,229.4c0,19-25.4,29.8-41.9,29.8c-17.7,0-42.6-10.8-42.6-29.8v-66.9c0-19,25-27.9,42.6-27.9
	c16.5,0,41.9,8.9,41.9,27.9V229.4z M519.8,93.2c-39.2,0.4-84.9,23.2-84.9,69.3v70.1c0,46.8,45.7,68.9,84.9,69.3
	c38.4-0.4,84.1-22.5,84.1-69.3v-70.1C603.9,116.4,558.2,93.6,519.8,93.2L519.8,93.2z"/>
<path class="st0" d="M431.7,108.5c-31.3-8.5-54.4-12.1-87.9-12.1c-33.5,0-56.7,3.6-87.9,12.1c-1.5,0.3-1.8,1.9-1.1,2.8
	c10.7,8.9,15.2,20.8,17.2,34.2c17.2-4.2,32.6-6.7,50.6-7.7v162.7c0,0.6,0.4,0.9,1,0.9h40.2c0.7,0.1,1-0.2,1-0.9V137.8
	c17.3,1,31.7,3.5,48.8,7.6c2.6-13.3,8-25.8,18.9-34.1C433.6,110.1,432.8,108.8,431.7,108.5"/>
<path class="st0" d="M731.5,94.7c-3-0.4-11.9-1.7-19.7-1.4c-38.5,1.5-82,24.4-82,69.3v3.6v66.5v68.3c0,0.6,0.4,0.9,1,0.9h40.2
	c0.7,0.1,1-0.2,1-0.9v-3.6h0V162.5c0-14.8,18.1-24,33.2-27.1c4.4-14.8,13-25.4,26.2-36.1C733.8,97.5,733.7,94.9,731.5,94.7"/>
<path class="st0" d="M210.5,174.3c0,0.5-0.2,0.9-0.5,1.2c-0.3,0.3-0.8,0.6-1.3,0.6h-77V162c0-19.2,22.7-28.3,40.6-28.3
	c16.7,0,38.2,9,38.2,28.3L210.5,174.3z M172.3,91.7c-39.7,0.4-83.4,23.6-83.4,70.3v71.1c0,47.5,43.7,69.9,83.4,70.3
	c28.5-0.3,60.9-12.2,76.3-37.3c0.5-0.8,0.1-1.9-0.7-2.4c-13.6-7.9-21.5-12.2-35-19.9c-0.4-0.2-0.9-0.2-1.2,0.3
	c-7.4,12.4-26.2,19.2-39.4,19.2c-17.9,0-40.6-11-40.6-30.2v-21.2h110.1c5.9,0,10.6-4.8,10.6-10.7V162
	C252.5,115.3,211.3,92.1,172.3,91.7L172.3,91.7z"/>
</svg>
