<svg width="61" height="60" viewBox="0 0 61 60" fill="none" xmlns="http://www.w3.org/2000/svg">
<path d="M42.4065 5.5459H55.665C56.1505 5.5459 56.5439 5.1525 56.5439 4.66699C56.5439 4.18148 56.1505 3.78809 55.665 3.78809H42.4065C41.921 3.78809 41.5276 4.18148 41.5276 4.66699C41.5276 5.1525 41.921 5.5459 42.4065 5.5459Z" fill="#212121"/>
<path d="M42.4065 9.33398H50.9298C51.4153 9.33398 51.8087 8.94059 51.8087 8.45508C51.8087 7.96957 51.4153 7.57617 50.9298 7.57617H42.4065C41.921 7.57617 41.5276 7.96957 41.5276 8.45508C41.5276 8.94059 41.921 9.33398 42.4065 9.33398Z" fill="#212121"/>
<path d="M59.4531 0H38.6184C38.1329 0 37.7395 0.393398 37.7395 0.878906V12.2433C37.7395 12.7288 38.1329 13.1222 38.6184 13.1222H40.4622V15.6763C40.4622 16.0085 40.6496 16.3124 40.9465 16.4616C41.0713 16.5243 41.2065 16.5552 41.341 16.5552C41.5267 16.5552 41.711 16.4965 41.8657 16.3816L46.2488 13.1223H59.4531C59.9386 13.1223 60.332 12.7289 60.332 12.2434V0.878906C60.332 0.393398 59.9384 0 59.4531 0ZM58.5742 11.3644H45.958C45.7691 11.3644 45.5851 11.4253 45.4334 11.5379L42.22 13.9275V12.2433C42.22 11.7578 41.8267 11.3644 41.3411 11.3644H39.4973V1.75781H58.5742V11.3644Z" fill="#212121"/>
<path d="M50.6933 16.8091C45.7825 16.8091 41.7205 20.5021 41.1311 25.2565L38.6296 22.7548L39.3638 21.3532C40.0262 20.0885 39.793 18.5606 38.7837 17.5512L32.8745 11.6423C31.8653 10.6329 30.3375 10.3996 29.0725 11.062L27.6714 11.796L25.5325 9.65684C25.1892 9.31359 24.6327 9.31348 24.2896 9.65672C23.9462 9.99996 23.9462 10.5565 24.2895 10.8996L41.146 27.7573C41.3979 29.6045 42.1739 31.2866 43.3207 32.6482L42.1215 33.8482C42.0017 33.9676 41.8065 33.9678 41.6878 33.849L16.5777 8.73879C16.4582 8.61914 16.4582 8.42414 16.577 8.30531L18.9201 5.96227C19.0391 5.84309 19.2326 5.84309 19.3512 5.96156L21.3892 7.99945C21.7323 8.34258 22.2888 8.3427 22.6321 7.99934C22.9753 7.65609 22.9753 7.09957 22.632 6.75645L20.5941 4.71867C19.791 3.91547 18.4829 3.91535 17.6776 4.71855L15.3332 7.06301C14.5308 7.86727 14.5307 9.1759 15.3339 9.98109L15.9262 10.5734L16.0296 13.4523C16.0694 14.5559 15.8135 15.6532 15.2901 16.6256L6.87166 32.2662L2.77748 36.3605C2.19588 36.9422 2.03721 37.7871 2.29701 38.515L0.936113 39.8759C0.131973 40.6801 0.131973 41.9888 0.936113 42.7931L7.63268 49.4897C8.03486 49.8918 8.56303 50.0927 9.09119 50.0927C9.61936 50.0927 10.1476 49.8916 10.5497 49.4897L11.9099 48.1295C12.1308 48.2087 12.3652 48.2522 12.6068 48.2522C13.1578 48.2522 13.6758 48.0376 14.0654 47.648L14.8387 46.8748L16.4778 49.1693C16.6493 49.4095 16.9194 49.5375 17.1937 49.5375C17.3704 49.5375 17.5488 49.4843 17.7038 49.3737C18.0988 49.0916 18.1902 48.5426 17.908 48.1477L16.0988 45.6149L18.1595 43.5541L19.2074 42.9901L25.3636 51.9445L22.5961 54.712L20.2917 51.4854C20.0096 51.0902 19.4604 50.9988 19.0657 51.2809C18.6707 51.563 18.5792 52.112 18.8612 52.5069L21.3888 56.0461C21.2858 56.259 21.2298 56.4933 21.2298 56.7367C21.2298 57.1612 21.3952 57.5603 21.6953 57.8604L23.3693 59.5343C23.6695 59.8345 24.0686 60 24.4931 60C24.9176 60 25.3167 59.8346 25.617 59.5345L29.9697 55.1818C30.5892 54.5621 30.5892 53.5539 29.9697 52.9342L28.2956 51.2602C27.8768 50.8414 27.281 50.7068 26.7472 50.854L23.9575 46.7961L25.9517 44.8018C26.2348 44.5187 26.2908 44.08 26.0877 43.7348L24.1003 40.3562L33.8001 35.1354C34.7725 34.6119 35.8699 34.3561 36.9734 34.3959L39.8523 34.4994L40.4456 35.0927C40.8477 35.4936 41.3756 35.6943 41.9038 35.6941C42.4323 35.6941 42.961 35.4933 43.3637 35.0917L44.5685 33.8861C46.2349 35.2608 48.3693 36.0875 50.6932 36.0875C50.9092 36.0875 51.1204 36.0805 51.3209 36.0667C51.8051 36.0333 52.1706 35.6136 52.1372 35.1293C52.1037 34.645 51.684 34.2812 51.1998 34.313C51.0371 34.3242 50.8713 34.3297 50.6932 34.3297C46.3477 34.3297 42.8124 30.7944 42.8124 26.4489C42.8124 22.1027 46.3477 18.5668 50.6932 18.5668C55.0388 18.5668 58.5741 22.1027 58.5741 26.4489C58.5741 29.2193 57.0912 31.8191 54.7042 33.2337C54.2867 33.4811 54.1487 34.0202 54.3961 34.4378C54.6436 34.8555 55.1829 34.9935 55.6002 34.7459C58.5188 33.0163 60.3319 29.837 60.3319 26.4487C60.332 21.1336 56.008 16.8091 50.6933 16.8091ZM8.87568 48.2466L2.17912 41.55C2.06018 41.4312 2.06018 41.2377 2.17912 41.1189L3.39904 39.8989L10.5267 47.0264L9.3067 48.2466C9.18787 48.3656 8.99451 48.3656 8.87568 48.2466ZM12.8224 46.405C12.7447 46.4828 12.6539 46.4944 12.6068 46.4944C12.5597 46.4944 12.469 46.4828 12.3913 46.405L4.02166 38.0357C4.02131 38.0353 4.02096 38.0348 4.02061 38.0345C4.02049 38.0344 4.02037 38.0343 4.02025 38.0341C3.90178 37.9152 3.90189 37.722 4.02061 37.6034L7.58439 34.0395L16.3861 42.8412L12.8224 46.405ZM28.6074 54.0579L24.4931 58.172L23.0576 56.7363L27.1717 52.6222L28.6074 54.0579ZM24.2277 44.04L22.9447 45.3231L20.7645 42.1519L22.5513 41.1901L24.2277 44.04ZM37.0367 32.6393C35.6212 32.5882 34.2141 32.9163 32.967 33.5875L17.7884 41.7573L8.66838 32.6373L16.8382 17.4588C17.5095 16.2117 17.8374 14.8045 17.7865 13.3891L17.7509 12.398L38.028 32.675L37.0367 32.6393ZM29.8881 12.6191C30.4679 12.3155 31.1687 12.422 31.6315 12.8852L37.5406 18.7943C38.0035 19.2571 38.1103 19.9577 37.8067 20.5376L37.3274 21.4526L28.9736 13.0982L29.8881 12.6191Z" fill="#212121"/>
<path d="M56.3071 26.4491C56.3071 26.1316 56.1358 25.8388 55.8591 25.6831L48.2829 21.4214C48.0112 21.2684 47.6781 21.2712 47.4084 21.4288C47.1388 21.5864 46.9731 21.8753 46.9731 22.1875V30.7107C46.9731 31.0228 47.1388 31.3117 47.4084 31.4693C47.5454 31.5495 47.6987 31.5896 47.8521 31.5896C48.0005 31.5896 48.1491 31.5521 48.2829 31.4767L55.8591 27.2152C56.1358 27.0594 56.3071 26.7667 56.3071 26.4491ZM48.731 29.2078V23.6903L53.6356 26.4491L48.731 29.2078Z" fill="#212121"/>
</svg>
