<svg width="129" height="31" viewBox="0 0 129 31" fill="none" xmlns="http://www.w3.org/2000/svg">
<path d="M104.253 0.626953C105.034 0.893724 105.872 1.02711 106.616 1.40821C108.388 2.34191 109.512 3.73293 109.76 5.79088C109.95 7.29623 109.874 8.72536 108.978 10.0211C108.14 11.2216 106.882 11.8504 105.548 12.3268C103.776 12.9746 101.871 13.2033 100.099 13.8702C99.6604 14.0227 99.2031 14.1942 98.841 14.4609C97.6596 15.3565 97.8502 16.4236 99.0316 17.262C99.6032 17.6622 100.289 17.7765 100.975 17.8146C103.452 17.948 105.796 17.4907 108.026 16.3855C108.369 16.214 108.597 16.214 108.788 16.6332C109.169 17.4907 109.588 18.3101 109.988 19.1485C110.179 19.5296 110.179 19.7964 109.702 20.0441C108.407 20.711 107.054 21.2636 105.625 21.4923C103.719 21.8162 101.776 21.8543 99.8319 21.6447C98.2503 21.4732 96.8021 20.9778 95.5255 20.006C94.7633 19.4153 94.2678 18.6721 93.9248 17.8146C93.4103 16.4808 93.3532 15.1088 93.6962 13.7368C94.1535 11.9266 95.4683 10.9357 97.088 10.2498C98.9173 9.46851 100.88 9.14458 102.785 8.59198C103.357 8.42048 103.91 8.17276 104.443 7.86788C105.872 7.02946 105.282 5.50505 104.272 4.95246C103.319 4.43797 102.309 4.41891 101.242 4.53324C99.87 4.68568 98.5743 5.04773 97.2785 5.44789C97.1833 5.486 97.0689 5.50505 96.9736 5.56222C96.0399 5.98143 96.0399 5.98143 95.5636 5.04773C95.2015 4.34269 94.8395 3.63766 94.4965 2.93262C94.2297 2.38002 94.344 2.15136 94.8776 1.9227C96.3829 1.31294 97.9264 0.893724 99.527 0.722228C99.5651 0.722228 99.6032 0.665063 99.6414 0.626953C101.185 0.626953 102.709 0.626953 104.253 0.626953Z" fill="#01FE00"/>
<path d="M127.27 1.29481C126.584 1.44725 124.717 1.27575 124.374 1.27575C123.974 1.2567 123.859 1.35197 123.859 1.77118C123.878 4.68661 123.859 7.60204 123.878 10.5365C123.878 10.9367 123.802 11.051 123.383 11.051C120.715 11.032 118.048 11.032 115.38 11.051C114.98 11.051 114.865 10.9748 114.865 10.5556C114.884 7.62109 114.865 4.68661 114.884 1.73307C114.884 1.39008 114.808 1.27575 114.446 1.27575C113.36 1.29481 112.293 1.29481 111.207 1.27575C110.902 1.27575 110.807 1.35197 110.807 1.65685C110.807 8.11652 110.807 14.5762 110.807 21.0359C110.807 21.3407 110.883 21.436 111.188 21.436C112.274 21.417 113.341 21.417 114.427 21.436C114.789 21.436 114.884 21.3598 114.884 20.9978C114.865 19.0351 114.884 17.0534 114.865 15.0907C114.865 14.7286 114.961 14.6334 115.304 14.6334C118.009 14.6524 120.715 14.6524 123.421 14.6334C123.783 14.6334 123.878 14.7286 123.878 15.0716C123.859 17.0343 123.878 19.016 123.859 20.9787C123.859 21.3407 123.955 21.436 124.298 21.436C125.193 21.417 127.023 21.2645 127.423 21.417C127.442 21.417 127.556 21.4741 127.689 21.4551C127.823 21.4551 127.937 21.3979 128.032 21.3598C128.051 18.0442 128.051 14.7096 128.032 11.3178C128.013 8.00219 127.975 4.72472 127.918 1.48536C127.899 1.44725 127.861 1.37103 127.785 1.33292C127.613 1.19953 127.366 1.27575 127.27 1.29481Z" fill="black"/>
<path d="M0.0778809 1.27492C1.24024 1.27492 2.42166 1.29397 3.58401 1.27492C3.94606 1.27492 4.04134 1.37019 4.04134 1.71318C4.02228 4.64767 4.04134 7.58214 4.02228 10.5166C4.02228 10.9168 4.11756 11.0311 4.51771 11.0311C7.18542 11.0121 9.85314 11.0121 12.5208 11.0311C12.921 11.0311 13.0353 10.9358 13.0353 10.5357C13.0163 7.62025 13.0353 4.70483 13.0163 1.77035C13.0163 1.37019 13.1116 1.25586 13.5117 1.25586C14.5978 1.29397 15.703 1.27491 16.8082 1.25586C17.1131 1.25586 17.2084 1.33208 17.2084 1.63696C17.2084 8.09663 17.2084 14.5563 17.2084 21.016C17.2084 21.3209 17.1322 21.4161 16.8273 21.4161C15.7221 21.3971 14.5978 21.3971 13.4927 21.4161C13.1497 21.4161 13.0353 21.3399 13.0353 20.9779C13.0544 19.0152 13.0353 17.0335 13.0544 15.0708C13.0544 14.7278 12.9782 14.6135 12.6161 14.6135C9.94841 14.6325 7.2807 14.6325 4.61299 14.6135C4.17472 14.6135 4.04134 14.7278 4.04134 15.1661C4.06039 17.0906 4.04134 19.0343 4.06039 20.9588C4.06039 21.3209 3.96512 21.4161 3.60307 21.3971C2.44071 21.378 1.2593 21.3971 0.0969359 21.3971C0.0778809 14.7087 0.0778809 7.9823 0.0778809 1.27492Z" fill="black"/>
<path d="M85.501 30.734C85.501 29.0952 85.501 27.4565 85.5201 25.8177C85.5201 25.6463 85.3295 25.3223 85.6725 25.2842C86.0155 25.2461 86.3775 25.1508 86.6253 25.5891C87.2731 26.7896 87.9591 27.971 88.7023 29.2858C88.7023 28.0091 88.7023 26.8658 88.7023 25.7034C88.7023 25.3985 88.7213 25.2651 89.1024 25.2461C89.5026 25.2461 89.4835 25.4366 89.4835 25.7034C89.4835 27.3803 89.4835 29.0571 89.4835 30.734C89.1977 30.734 88.8928 30.734 88.607 30.734C88.3783 30.6196 88.2831 30.41 88.1687 30.2004C87.559 29.1143 86.892 28.0662 86.3394 26.942C86.3013 26.8848 86.2823 27.0182 86.3394 26.9611C86.3585 26.942 86.3775 26.942 86.3966 26.9801C86.6824 27.8185 86.5872 28.676 86.5872 29.5335C86.5872 29.9336 86.7015 30.3719 86.4538 30.753C86.0917 30.734 85.7868 30.734 85.501 30.734Z" fill="black"/>
<path d="M93.9433 30.7354C92.2665 29.8588 92.2665 27.7056 92.8191 26.4289C93.3717 25.1903 95.2391 24.733 96.3252 25.5143C96.5348 25.6667 96.6682 25.8763 96.5158 26.124C96.3633 26.3908 96.0965 26.4289 95.8679 26.2384C94.9151 25.438 93.6384 26.105 93.4098 27.496C93.2954 28.201 93.2764 28.9632 93.8861 29.5539C94.2863 29.9541 94.8961 30.2018 95.4106 30.0303C95.7917 29.916 96.1347 28.9061 95.8679 28.6012C95.7154 28.4106 95.4487 28.544 95.2391 28.525C95.0295 28.5059 94.7817 28.6202 94.7817 28.201C94.7817 27.8199 94.9723 27.839 95.22 27.858C95.6964 27.8962 96.3061 27.6484 96.5729 27.9533C96.8016 28.201 96.6491 28.8108 96.6491 29.2681C96.6491 29.3062 96.6491 29.3443 96.6491 29.3824C96.7254 29.9732 96.6301 30.4686 95.9822 30.7163C95.3343 30.7354 94.6293 30.7354 93.9433 30.7354Z" fill="black"/>
<path d="M75.5173 30.7346C75.3267 30.6012 75.1362 30.4107 74.9266 30.3345C74.5264 30.182 74.6217 29.9343 74.7741 29.7057C74.9647 29.4198 75.2505 29.4579 75.4792 29.6675C75.8603 30.0105 76.3176 30.1058 76.813 30.0868C77.2323 30.0677 77.499 29.82 77.5943 29.4579C77.6896 29.0959 77.48 28.8101 77.137 28.6576C76.6225 28.429 76.1271 28.1813 75.6126 27.9145C75.1171 27.6668 74.7932 27.057 74.8885 26.5425C75.0219 25.8375 75.422 25.3992 75.9937 25.2468C76.7368 25.0562 77.3847 25.1705 78.0135 25.5517C78.2993 25.7231 78.3756 25.8946 78.2041 26.1424C78.0326 26.3901 77.823 26.4282 77.5562 26.2186C77.0989 25.8756 76.6034 25.7231 76.0699 26.0852C75.5935 26.4282 75.6507 26.9236 76.2223 27.2094C76.6987 27.4572 77.2322 27.6287 77.6896 27.9145C78.7757 28.5814 78.7757 29.839 77.7277 30.5441C77.6705 30.5822 77.6515 30.6584 77.6134 30.7156C76.9083 30.7346 76.2223 30.7346 75.5173 30.7346Z" fill="black"/>
<path d="M51.6223 30.7334C51.6223 29.0566 51.6414 27.3798 51.6223 25.7029C51.6223 25.3409 51.6985 25.2456 52.0606 25.2456C52.8609 25.2837 53.6612 25.2646 54.4806 25.2456C54.8236 25.2265 54.8236 25.398 54.8236 25.6267C54.8236 25.8553 54.8426 26.0459 54.4996 26.0268C53.9089 25.9887 53.3373 26.0268 52.7466 26.0078C52.4798 26.0078 52.4036 26.065 52.4036 26.3317C52.4417 27.799 52.2321 27.5131 53.5659 27.5322C53.7755 27.5322 53.9661 27.5513 54.1757 27.5322C54.4425 27.5131 54.5187 27.6084 54.5187 27.8561C54.5187 28.1229 54.4425 28.1991 54.1757 28.1991C53.6993 28.1801 53.2229 28.1991 52.7466 28.1801C52.4798 28.161 52.4226 28.2563 52.4036 28.5231C52.3464 30.0475 52.3274 30.0475 53.8327 30.0475C53.9851 30.0475 54.1376 30.0665 54.271 30.0475C54.8236 29.9522 55.0332 30.1618 54.9188 30.7144C53.8136 30.7334 52.7085 30.7334 51.6223 30.7334Z" fill="black"/>
<path d="M46.3428 30.7339C45.8093 29.0571 45.2948 27.3802 44.7613 25.7225C44.7041 25.551 44.5707 25.3032 44.8184 25.2842C45.0661 25.2651 45.4282 25.0174 45.5806 25.4747C45.9998 26.8467 46.4191 28.2187 46.8573 29.6668C47.1431 28.7141 47.4099 27.8376 47.6767 26.942C47.8291 26.4465 48.0006 25.9702 48.0959 25.4747C48.134 25.2651 48.2102 25.2651 48.3817 25.2461C49.0487 25.1889 49.0868 25.227 48.8772 25.8558C48.3627 27.4755 47.8482 29.0952 47.3337 30.7149C47.0098 30.7339 46.6858 30.7339 46.3428 30.7339Z" fill="black"/>
<path d="M65.533 30.7354C65.533 29.3063 65.5139 27.8962 65.533 26.4671C65.533 26.105 65.4377 25.9716 65.0757 26.0288C64.8661 26.0479 64.6374 26.0288 64.4278 26.0288C64.142 26.0479 63.9705 26.0288 63.9705 25.6477C63.9705 25.2666 64.142 25.2666 64.4278 25.2666C65.5139 25.2857 66.581 25.2857 67.6671 25.2666C67.972 25.2666 68.0673 25.3428 68.0673 25.6477C68.0673 25.9526 67.9911 26.0479 67.6671 26.0479C67.2479 26.0479 66.6953 25.8573 66.4667 26.1431C66.2571 26.4099 66.4095 26.9434 66.4095 27.3627C66.4095 28.4869 66.4095 29.6302 66.4095 30.7545C66.1237 30.7354 65.8379 30.7354 65.533 30.7354Z" fill="black"/>
<path d="M81.3284 30.734C81.3284 29.0571 81.3474 27.3803 81.3284 25.7034C81.3284 25.3414 81.4236 25.2461 81.7666 25.2461C82.1096 25.2461 82.224 25.3414 82.2049 25.7034C82.1858 27.3803 82.2049 29.0571 82.2049 30.734C81.9191 30.734 81.6142 30.734 81.3284 30.734Z" fill="black"/>
<path d="M70.9045 30.734C70.9045 29.0571 70.9045 27.3803 70.9045 25.7034C70.9045 25.4176 70.9045 25.2461 71.2856 25.2461C71.6667 25.2461 71.6667 25.4176 71.6667 25.7034C71.6667 27.3803 71.6667 29.0571 71.6667 30.734C71.419 30.734 71.1713 30.734 70.9045 30.734Z" fill="black"/>
<path d="M18.0669 11.3551C18.0669 8.1538 18.0669 4.9716 18.0479 1.77035C18.0479 1.37019 18.1431 1.25586 18.5433 1.25586C23.1165 1.27491 27.6707 1.27491 32.2439 1.25586C32.644 1.25586 32.7774 1.33208 32.7584 1.75129C32.7203 2.62783 32.7203 3.50436 32.7584 4.38089C32.7774 4.78105 32.6631 4.89538 32.2629 4.89538C29.0426 4.87633 25.8223 4.89538 22.6211 4.87632C22.2209 4.87632 22.1066 4.9716 22.1066 5.37175C22.1447 6.74372 22.1256 8.11569 22.1066 9.4686C22.1066 9.83064 22.2019 9.92592 22.5448 9.92592C25.1935 9.90687 27.8422 9.92592 30.4908 9.90687C30.891 9.90687 31.0053 10.0021 31.0053 10.4023C30.9672 11.2598 30.9672 12.1173 31.0053 12.9747C31.0244 13.3368 30.91 13.4321 30.548 13.413C27.8993 13.3939 25.2507 13.413 22.602 13.3939C22.2019 13.3939 22.0875 13.4892 22.0875 13.8894C22.1256 15.0327 22.1066 16.195 22.0875 17.3383C22.0875 17.7004 22.1828 17.7957 22.5448 17.7766C25.9938 17.7576 29.4428 17.7766 32.9108 17.7576C33.33 17.7576 33.4253 17.8528 33.4062 18.253C33.3681 19.1676 33.3872 20.0823 33.4062 20.9969C33.4062 21.3018 33.33 21.378 33.0061 21.378C28.147 21.359 23.288 21.359 18.429 21.378C18.0479 21.378 18.0479 21.2256 18.0479 20.9207C18.0669 17.7766 18.0669 14.5563 18.0669 11.3551Z" fill="black"/>
<path d="M62.5207 1.04664C65.6838 1.04664 68.3515 2.17089 70.5048 4.51466C70.7525 4.78143 70.7906 4.99104 70.5238 5.23875C69.6664 6.05812 68.7708 6.85843 67.8371 7.60158C67.6084 7.79213 67.5512 7.73497 67.3416 7.52536C66.3698 6.47733 65.3027 5.54363 63.8355 5.18158C62.5207 4.85765 61.244 4.93387 60.0816 5.50552C58.0618 6.51544 56.6327 8.13512 56.3468 10.4217C55.9276 14.0231 57.9284 16.8624 61.3964 17.5483C63.7593 18.0057 65.7791 17.1672 67.2845 15.2427C67.456 15.014 67.5893 14.9949 67.818 15.1855C68.4468 15.719 69.0756 16.2335 69.7235 16.7671C69.9903 16.9957 70.2761 17.2244 70.5429 17.4721C70.7715 17.6817 70.7715 17.8913 70.5429 18.12C68.9232 19.854 66.9605 20.9782 64.5977 21.4165C61.6632 21.9691 58.9574 21.4356 56.4993 19.8349C54.2127 18.3486 52.7264 16.1954 52.1928 13.5277C51.6784 10.9362 52.0785 8.44001 53.4505 6.09623C54.9939 3.46663 57.2615 1.96128 60.1579 1.2753C60.9201 1.08475 61.7204 1.00853 62.5207 1.04664Z" fill="black"/>
<path d="M42.6856 1.27492C45.3152 1.27492 47.9448 1.29397 50.5744 1.25586C50.9745 1.25586 51.0888 1.35114 51.0888 1.75129C51.0507 2.64688 51.0507 3.54247 51.0888 4.43806C51.1079 4.8001 50.9936 4.89538 50.6506 4.89538C48.8785 4.87633 47.1063 4.89538 45.3342 4.87632C44.915 4.87632 44.8197 4.9716 44.8388 5.37175C44.8578 10.5357 44.8388 15.6996 44.8578 20.8635C44.8578 21.3209 44.7626 21.4352 44.3052 21.4161C43.2191 21.378 42.152 21.378 41.0659 21.4161C40.6467 21.4352 40.5514 21.3209 40.5514 20.9207C40.5704 15.7568 40.5514 10.5928 40.5704 5.42892C40.5704 4.9716 40.4752 4.85727 40.0178 4.87632C38.2648 4.91443 36.5117 4.87633 34.7586 4.89538C34.3966 4.89538 34.3013 4.8001 34.3013 4.45711C34.3204 3.54247 34.3204 2.62783 34.3013 1.71318C34.2823 1.35114 34.3966 1.25586 34.7586 1.27492C37.3882 1.27492 40.0369 1.27492 42.6856 1.27492Z" fill="black"/>
<path d="M105.185 27.667C107.376 27.667 109.568 27.667 111.759 27.667C111.969 27.667 112.273 27.5145 112.273 27.9719C112.273 28.4101 112.026 28.3148 111.778 28.3148C107.376 28.3148 102.994 28.3148 98.5919 28.3148C98.3632 28.3148 98.0964 28.4101 98.0964 27.9719C98.0964 27.5145 98.4013 27.667 98.6109 27.667C100.802 27.667 102.994 27.667 105.185 27.667Z" fill="black"/>
<path d="M22.887 27.6665C25.0783 27.6665 27.2697 27.6665 29.461 27.6665C29.6706 27.6665 29.9183 27.5522 29.9374 27.9714C29.9564 28.4097 29.6897 28.3144 29.461 28.3144C25.0974 28.3144 20.7338 28.3144 16.3892 28.3144C16.1606 28.3144 15.8938 28.4287 15.8938 27.9905C15.8938 27.5332 16.1987 27.6665 16.4083 27.6665C18.5425 27.6665 20.7147 27.6665 22.887 27.6665Z" fill="black"/>
<path d="M61.6064 30.3154C61.2824 29.8009 60.9966 29.2864 60.6917 28.7719C60.5584 28.5623 60.444 28.4289 60.787 28.2765C61.5302 27.9525 61.6445 27.2666 61.5873 26.5615C61.5302 25.9137 61.1681 25.5135 60.5202 25.342C59.7771 25.1515 59.034 25.3039 58.3099 25.2277C57.9478 25.1896 57.8525 25.3039 57.8525 25.6659C57.8716 27.3428 57.8525 29.0196 57.8525 30.6965C58.1384 30.6965 58.4432 30.6965 58.7291 30.6965C58.9006 30.525 58.8625 30.2963 58.8815 30.0677C58.8815 29.7437 58.8815 29.4198 58.8815 29.0959C58.8815 28.9244 58.8815 28.7529 59.0911 28.6957C59.2817 28.6385 59.4532 28.7148 59.5675 28.8862C59.8152 29.2292 59.9867 29.6103 60.2154 29.9533C60.3869 30.2201 60.5012 30.544 60.8251 30.6965C61.111 30.6965 61.4158 30.6965 61.7017 30.6965C61.7207 30.5822 61.6826 30.4488 61.6064 30.3154ZM59.8724 27.7811C59.8343 27.8001 59.7962 27.7811 59.758 27.7811C58.7481 27.8382 58.7481 27.8382 58.7481 26.8283C58.7481 25.7803 58.7481 25.8184 59.8343 26.0089C60.3297 26.0852 60.6917 26.1995 60.7299 26.7711C60.768 27.4571 60.444 27.5714 59.8724 27.7811Z" fill="black"/>
<path d="M42.399 27.3807C42.399 26.3898 41.7321 25.6086 40.7793 25.3608C40.1505 25.2084 39.5217 25.3037 38.8929 25.2465C38.5308 25.2084 38.4546 25.3418 38.4546 25.7038C38.4736 27.3807 38.4546 29.0575 38.4546 30.7344C39.1787 30.7344 39.9218 30.7344 40.6459 30.7344C41.5034 30.4867 42.1703 29.9722 42.3418 29.0766C42.4562 28.524 42.399 27.9333 42.399 27.3807ZM40.7603 29.8007C40.665 29.8578 40.5697 29.915 40.4744 29.9341C39.4645 30.258 39.3311 30.1627 39.3311 29.0956C39.3311 28.7145 39.3311 28.3334 39.3311 27.9523C39.3311 27.3616 39.3502 26.79 39.3311 26.1993C39.3121 25.9134 39.4455 25.8753 39.6741 25.8753C40.5697 25.8944 41.2747 26.3898 41.5225 27.1711C41.8083 28.2 41.4843 29.3433 40.7603 29.8007Z" fill="black"/>
<path d="M35.8258 30.5627C35.2732 28.8859 34.7206 27.209 34.168 25.5131C34.0537 25.1511 33.7488 25.2845 33.5011 25.2463C33.2344 25.2082 33.0629 25.3035 32.9866 25.5703C32.8151 26.0848 32.6436 26.5992 32.4912 27.1328C32.1292 28.3333 31.6337 29.4956 31.3479 30.7342C31.6337 30.7342 31.9386 30.7342 32.2244 30.7342C32.5293 30.4674 32.5484 30.0482 32.6627 29.6862C32.777 29.3622 32.9676 29.2098 33.3106 29.2288C33.4821 29.2479 33.6345 29.2479 33.806 29.2288C34.2062 29.1907 34.3967 29.3813 34.511 29.7433C34.6254 30.0863 34.6635 30.4674 34.9684 30.7151C35.2542 30.7151 35.5591 30.7151 35.8449 30.7151C35.8258 30.677 35.8449 30.6199 35.8258 30.5627ZM33.9394 28.4285C33.5964 28.4095 33.2534 28.4285 32.8914 28.4285C33.12 27.7044 33.3296 26.9994 33.5773 26.2372C33.7869 26.9041 33.9584 27.5329 34.149 28.1427C34.2252 28.3523 34.168 28.4476 33.9394 28.4285Z" fill="black"/>
<path d="M92.4954 20.6935C91.4473 18.5022 90.3993 16.3108 89.3513 14.1195C88.2651 11.8329 87.1599 9.54627 86.0928 7.25966C85.3878 5.77337 84.7018 4.30612 84.0349 2.80077C83.368 1.27637 83.387 1.27637 81.7483 1.27637C81.5768 1.27637 81.4244 1.27637 81.2529 1.27637C81.1195 1.27637 81.0623 1.31448 81.0051 1.46692C79.9571 3.73447 78.9091 6.00202 77.842 8.25052C76.451 11.185 75.06 14.1004 73.6689 17.0159C73.0401 18.3497 72.4304 19.7026 71.7825 21.0365C71.611 21.3985 71.7063 21.4366 72.0302 21.4366C72.64 21.4366 73.2307 21.4366 73.8404 21.4366C74.4693 21.4366 75.079 21.4176 75.7078 21.4366C75.9746 21.4557 76.0889 21.3414 76.1842 21.1318C76.6796 20.0075 77.2322 18.9023 77.6705 17.759C77.8039 17.416 77.9563 17.3779 78.2422 17.3779C80.8336 17.3779 83.4251 17.397 86.0166 17.3779C86.3787 17.3779 86.5502 17.4922 86.7026 17.8162C87.1599 18.8833 87.6744 19.9313 88.1127 20.9984C88.2651 21.3795 88.4938 21.4557 88.8558 21.4366C89.9229 21.4176 90.9709 21.4366 92.038 21.4366C92.724 21.4176 92.7812 21.3033 92.4954 20.6935ZM79.3474 13.8527C80.281 11.7757 81.2147 9.71776 82.1675 7.62171C83.1203 9.69871 84.054 11.7567 85.0067 13.8527C83.0821 13.8527 81.2338 13.8527 79.3474 13.8527Z" fill="black"/>
</svg>
