<svg width="50" height="50" viewBox="0 0 50 50" fill="none" xmlns="http://www.w3.org/2000/svg">
<g clip-path="url(#clip0_882_5100)">
<path d="M29.9428 20.0577L28.6406 18.7554C26.6245 16.7393 23.944 15.6289 21.0929 15.6289C18.2418 15.6289 15.5613 16.7393 13.5453 18.7554L3.12646 29.1742C1.11035 31.1903 0 33.8708 0 36.7219C0 39.573 1.11035 42.2535 3.12646 44.2696L5.73115 46.874C7.74707 48.8901 10.4275 50.0005 13.2787 50.0005C16.1299 50.0005 18.8103 48.8901 20.8263 46.8741L24.7335 42.9673C25.3055 42.3952 25.3056 41.4678 24.7336 40.8956C24.1613 40.3236 23.2339 40.3237 22.6619 40.8956L18.7547 44.8025C17.2919 46.2652 15.3472 47.0708 13.2787 47.0708C11.2101 47.0708 9.26543 46.2652 7.80273 44.8024L5.19805 42.198C3.73525 40.7353 2.92969 38.7904 2.92969 36.7219C2.92969 34.6533 3.73525 32.7085 5.19805 31.2458L15.617 20.827C17.0797 19.3642 19.0245 18.5587 21.093 18.5587C23.1616 18.5587 25.1064 19.3643 26.569 20.827L27.871 22.1291C28.443 22.7013 29.3705 22.7013 29.9426 22.1293C30.5146 21.5573 30.5147 20.6298 29.9428 20.0577Z" fill="#3E3E3E"/>
<path d="M46.8737 5.73125L44.2691 3.12647C42.253 1.11025 39.5724 0 36.7213 0C33.8701 0 31.1896 1.11035 29.1738 3.12647L25.2666 7.03369C24.6945 7.60566 24.6945 8.5332 25.2666 9.10527C25.8386 9.67725 26.7661 9.67725 27.3382 9.10527L31.2455 5.19805C32.7081 3.73525 34.6527 2.92969 36.7213 2.92969C38.7899 2.92969 40.7347 3.73525 42.1974 5.19805L44.802 7.80274C46.2648 9.26553 47.0704 11.2103 47.0704 13.2788C47.0704 15.3474 46.2648 17.2922 44.802 18.7549L34.3832 29.1737C32.9204 30.6365 30.9757 31.4421 28.9072 31.4421C26.8386 31.4421 24.8937 30.6365 23.431 29.1737L22.1287 27.8714C21.5567 27.2994 20.6292 27.2994 20.0571 27.8714C19.485 28.4434 19.485 29.3709 20.0571 29.943L21.3594 31.2453C23.3756 33.2614 26.056 34.3718 28.9072 34.3718C31.7583 34.3718 34.4388 33.2614 36.4548 31.2453L46.8737 20.8265C48.8898 18.8104 50.0001 16.1299 50.0001 13.2788C50.0001 10.4277 48.8897 7.74727 46.8737 5.73125Z" fill="#3E3E3E"/>
</g>
<defs>
<clipPath id="clip0_882_5100">
<rect width="50" height="50" fill="white"/>
</clipPath>
</defs>
</svg>
