<svg width="140" height="37" viewBox="0 0 140 37" fill="none" xmlns="http://www.w3.org/2000/svg">
<g clip-path="url(#clip0_348_1427)">
<path opacity="0.24" d="M91.776 14.2766C91.776 14.1317 91.776 13.9867 91.776 13.8418C91.7035 14.4215 91.6311 15.2186 91.5586 15.8708V16.668C91.5586 16.8129 91.5586 16.9578 91.5586 17.0303C91.5586 16.9578 91.5586 16.9578 91.5586 16.8854C91.5586 16.0158 91.6311 15.1462 91.776 14.2766Z" fill="#AFAFAF"/>
<path fill-rule="evenodd" clip-rule="evenodd" d="M108.371 1.66691C108.516 1.73938 108.733 1.88431 108.95 1.95677C109.023 1.95677 109.168 1.95677 109.675 1.66691C109.675 1.66691 110.255 1.30458 110.327 1.15965C110.182 1.08719 110.037 1.01472 109.965 0.942254C109.893 0.869788 109.82 0.797323 109.748 0.797323C109.893 0.579925 111.704 0.217597 112.139 0.217597L112.211 0.290063C112.284 0.290063 112.284 0.290063 112.864 0.145131C113.153 0.0726657 113.298 0.0726657 113.443 0.000200056H113.516C113.661 0.000200056 113.733 0.000200056 113.806 0.0726657C113.878 0.0726657 113.951 0.0726657 114.096 0.145131C114.168 0.145131 114.24 0.145131 114.313 0.217597C114.53 0.290063 114.748 0.290063 114.82 0.362528C114.82 0.362528 114.748 0.434994 114.675 0.434994C114.675 0.434994 116.414 1.30458 116.777 1.30458C116.849 1.30458 116.922 1.23212 116.994 1.23212C117.067 1.23212 117.429 1.30458 117.719 1.44951H117.791C117.791 1.44951 117.791 1.44951 117.864 1.44951C118.299 1.66691 118.588 1.73938 118.733 1.73938C119.096 1.52198 119.313 1.23212 119.313 0.942254V0.797323C119.168 0.724857 118.661 0.579925 118.661 0.50746C118.226 0.362528 117.719 0.290063 117.646 0.362528C117.646 0.362528 117.574 0.362528 117.429 0.362528C116.704 0.217597 115.907 0.0726657 115.11 0.000200056C115.038 0.000200056 114.82 0.000200056 114.458 0.000200056C114.168 0.000200056 113.878 0.000200056 113.661 0.000200056C113.443 0.000200056 113.226 0.000200056 113.009 0.000200056C111.269 0.0726657 109.603 0.362529 108.008 0.869788C107.791 1.15965 107.936 1.44951 108.371 1.66691ZM131.27 16.7398C131.27 16.3774 131.197 15.9426 131.197 15.5803C131.197 15.4354 131.197 15.2905 131.125 15.1455C131.125 15.218 131.125 15.2905 131.125 15.3629C131.053 15.9426 130.618 16.5224 129.893 17.0296C129.676 17.247 129.603 17.6094 129.603 18.1891C129.603 18.5514 129.531 18.9137 129.386 19.1311C128.879 19.421 128.371 19.6384 127.719 19.9283C127.502 20.0007 127.357 20.1457 127.139 20.5805C126.632 21.45 126.777 22.8269 127.719 22.6095C128.081 22.4646 128.371 22.3196 128.661 22.2472C128.879 22.2472 128.951 22.3921 128.951 22.7544V22.8269V22.8994C128.879 23.4066 129.023 23.624 129.241 23.4791C130.545 22.682 130.763 22.1022 130.908 21.6674L131.052 21.0877L131.197 19.8558C131.27 19.3485 131.27 18.6239 131.27 18.0442C131.27 17.9717 131.27 17.8992 131.27 17.8268V16.7398ZM113.226 0.579925H113.371C113.443 0.652391 113.588 1.52198 113.153 1.66691H112.936C112.791 1.66691 112.574 1.66691 112.429 1.66691H112.356C112.066 1.81184 111.632 2.46403 111.994 2.5365C113.298 2.60896 114.748 2.60896 116.052 2.46403C116.197 2.46403 116.269 2.46403 116.342 2.39157H116.414C116.632 2.3191 116.414 2.02924 116.342 1.95677C116.197 1.81184 115.835 1.52198 115.617 1.44951H115.4C114.893 1.37705 114.313 0.50746 114.313 0.434994C114.385 0.434994 114.53 0.434994 114.603 0.362528C114.53 0.290063 114.313 0.217597 114.168 0.145131C113.951 0.0726657 113.806 0.000200056 113.661 -0.0722656C113.298 0.290063 113.226 0.434994 113.226 0.579925ZM101.269 6.52211C101.487 6.59458 101.776 6.37718 101.921 6.23225C101.921 6.23225 102.573 5.58006 102.429 5.29019C102.356 5.21773 102.284 5.14526 102.211 5.0728C102.211 4.49307 103.588 3.47855 104.095 3.55102C104.24 3.69595 104.385 3.84088 104.53 3.91335C104.747 3.98581 105.11 3.76842 105.255 3.62348C105.255 3.62348 105.979 3.11622 105.907 2.89883C105.472 2.60896 105.255 2.24664 105.255 1.95677C103.516 2.82636 101.921 4.05828 100.544 5.43513C100.689 5.79745 100.834 6.15978 101.269 6.52211ZM112.719 0.652391C112.501 0.652391 112.356 0.579925 112.211 0.579925C112.066 0.579925 111.052 1.01472 110.98 1.15965C111.269 1.23212 111.559 1.30458 111.922 1.37705C111.994 1.37705 112.066 1.37705 112.356 1.08719C112.356 1.08719 112.356 1.08719 112.429 1.01472C112.501 0.942254 112.719 0.724857 112.719 0.652391ZM116.052 8.40622C116.052 8.26129 115.907 7.6091 115.255 7.53663C114.458 7.53663 113.661 7.6091 112.864 7.53663C112.719 7.53663 112.574 7.46416 112.429 7.24677C111.994 6.73951 112.211 5.79745 112.791 5.50759C113.153 5.50759 113.588 5.50759 114.023 5.50759C114.385 5.43513 114.458 5.14526 114.458 5.00033C114.458 4.8554 114.385 4.34814 113.951 4.27567C112.356 4.27567 110.835 4.20321 109.458 3.98581C109.168 3.98581 108.95 4.13074 108.661 4.49307L108.588 4.56554C108.443 4.78293 108.226 4.92787 108.008 5.00033C107.501 4.92787 107.066 4.78293 106.704 4.71047C106.632 4.71047 106.487 4.71047 106.269 4.78293C105.545 5.0728 104.53 6.23225 105.255 6.59458C105.617 6.73951 106.052 6.81197 106.487 6.88444C106.414 7.02937 106.342 7.1743 106.269 7.31923C106.197 7.3917 106.197 7.46416 106.124 7.53663C105.907 7.97142 105.979 8.26129 106.342 8.40622C109.023 8.91348 112.284 9.13088 115.472 8.98594C115.98 8.91348 116.052 8.55115 116.052 8.40622ZM126.705 12.7542C126.705 12.7542 126.342 11.3773 125.4 11.5947C125.11 11.6672 124.748 11.8121 124.386 11.8846C124.096 11.8846 123.806 11.6672 123.661 11.3773V11.3048V11.2324C123.444 10.7251 123.081 10.5077 122.719 10.5802C121.849 10.7976 120.907 10.9425 119.893 11.0874C118.226 11.3048 116.559 11.4498 114.82 11.4498C114.675 11.4498 114.53 11.4498 114.385 11.5947C113.878 11.957 113.878 13.044 114.965 13.1165C115.038 13.1165 115.11 13.1165 115.183 13.1165C115.255 13.1165 115.327 13.1165 115.4 13.1165C115.762 13.189 116.052 13.3339 116.197 13.4788C116.849 14.131 116.632 15.218 115.835 15.5079C115.762 15.5079 115.762 15.5079 115.69 15.5079C115.617 15.5079 115.617 15.5079 115.545 15.5079C115.327 15.5079 115.11 15.5803 114.893 15.7977C114.458 16.2325 114.53 17.247 115.617 17.3195C117.429 17.247 119.241 17.1021 121.052 16.8847C121.849 16.7398 122.646 16.6673 123.299 16.5224C123.806 16.3774 123.951 16.0151 123.878 15.5079C123.806 15.1455 123.951 14.7832 124.096 14.6383C124.893 14.4209 125.618 14.2759 126.197 14.0585C126.849 13.6962 126.777 13.044 126.705 12.7542ZM107.139 11.0874C104.313 10.7251 101.921 10.0729 100.472 9.20334C99.7473 8.76855 99.3125 8.40622 99.0951 7.97143C99.0227 7.97143 98.8777 7.89896 98.6603 7.89896C98.5154 7.89896 98.3705 7.97143 98.2255 8.18882C98.2255 8.18882 97.356 9.63813 97.0661 10.4353C96.7762 11.3048 96.6313 11.8121 96.6313 11.8121L96.4864 12.3918C96.4139 12.6092 96.4139 12.8266 96.4139 12.8991C96.5588 13.4064 96.9212 13.9136 97.5734 14.3484C98.298 13.9861 99.0951 13.6962 99.8198 13.4064C99.4575 12.6092 100.11 11.3773 100.762 11.3048C102.284 11.957 104.385 12.3918 106.632 12.7542C107.211 12.7542 107.429 12.3918 107.501 12.1744C107.646 12.0295 107.863 11.2324 107.139 11.0874ZM117.574 26.0154C117.501 23.9139 116.922 21.8848 115.98 20.1457C117.791 20.0732 119.53 19.9283 121.197 19.7109C122.502 19.4935 123.733 19.2761 124.82 19.0587C125.69 18.9862 125.618 19.8558 125.618 19.9283C125.618 20.1457 125.473 20.6529 124.893 20.7978C123.878 21.0152 122.719 21.2326 121.487 21.45C120.11 21.9573 120.038 23.3341 120.835 23.7689C121.052 23.9139 121.27 23.9139 121.487 23.9139C121.777 23.8414 122.067 23.8414 122.357 23.7689C123.299 23.6965 123.154 24.5661 123.154 24.6385C123.081 24.8559 122.936 25.2907 122.284 25.4356C122.067 25.5081 121.777 25.5081 121.487 25.5806C121.342 25.5806 121.27 25.5806 121.125 25.653C119.965 25.798 118.733 25.9429 117.574 26.0154ZM116.342 32.175C116.342 32.1025 116.414 32.03 116.414 31.9576C116.414 32.03 116.414 32.03 116.342 32.1025V32.175ZM114.893 34.6388C115.038 34.4214 115.255 34.1315 115.4 33.9141C116.559 33.8417 117.646 33.7692 118.733 33.6243C119.603 33.4793 120.4 33.3344 121.052 33.1895C121.125 33.1895 121.415 33.117 121.27 33.3344C121.27 33.4069 121.197 33.4069 121.197 33.4793C121.052 33.6243 121.052 33.6967 121.125 33.6967C121.125 33.6967 121.125 33.6967 121.197 33.6967C121.197 33.6967 121.197 33.6967 121.27 33.6967C121.487 33.6243 121.704 33.5518 121.922 33.4793C121.922 33.4793 121.922 33.4793 121.994 33.4793H122.067C122.067 33.4793 122.067 33.4793 122.067 33.5518C119.748 34.7837 117.067 35.5808 114.313 35.6533C114.385 35.5808 114.458 35.4359 114.53 35.3634C114.603 35.3634 114.675 35.3634 114.748 35.3634H114.893C115.4 35.291 115.762 35.0011 115.472 34.7837C115.183 34.7113 115.038 34.6388 114.893 34.6388ZM111.559 15.1455C110.545 14.4933 109.458 13.9136 108.298 13.4788C108.371 13.4064 108.443 13.2614 108.588 13.189C108.95 12.8991 109.313 12.8991 109.458 12.8991C109.893 12.8991 110.327 12.9716 110.762 12.9716C111.704 13.044 111.994 13.8411 111.922 14.4209C111.849 14.6383 111.777 14.9281 111.559 15.1455ZM95.7617 15.4354C95.8342 15.3629 95.8342 15.3629 95.7617 15.4354C95.7617 15.3629 95.7617 15.3629 95.7617 15.2905C95.8342 15.2905 95.8342 15.3629 95.7617 15.4354ZM118.516 5.21773C118.081 5.65252 118.806 7.1743 119.82 7.02937C120.11 6.9569 120.4 6.88444 120.69 6.88444C121.197 6.73951 120.98 6.15978 120.835 5.79745C120.545 5.43513 119.965 4.8554 119.458 4.92787C119.386 4.92787 119.241 5.00033 119.168 5.00033C119.023 5.00033 118.878 5.0728 118.806 5.0728C118.661 5.14526 118.588 5.14526 118.516 5.21773ZM127.139 10.7976C127.574 10.5802 127.936 10.2903 128.226 10.0729H128.299C128.734 10.0005 129.603 11.5947 129.241 12.3194C129.168 12.3918 129.023 12.4643 128.951 12.6092C128.951 12.6817 128.879 12.6817 128.879 12.7542C128.734 13.189 129.096 14.4933 129.531 14.2759C130.183 13.7687 130.545 13.2614 130.618 12.7542C130.038 10.8701 129.168 9.05841 128.009 7.46417C128.009 8.11636 127.429 8.69608 126.415 9.27581C126.415 9.27581 126.342 9.34827 126.342 9.42074C126.125 9.78307 126.56 10.9425 127.139 10.7976ZM121.849 4.20321C121.994 4.13074 122.067 4.05828 122.139 3.98581C122.719 3.91335 124.241 5.14526 123.878 5.65252C123.661 5.79745 123.299 6.01485 122.936 6.15978C122.936 6.15978 122.864 6.15978 122.864 6.23225C122.646 6.44965 123.226 7.68156 123.951 7.53663C125.473 6.9569 126.27 6.23225 126.27 5.43513C124.893 4.05828 123.371 2.89883 121.632 1.95677C121.632 2.39157 121.342 2.7539 120.617 3.11622C120.473 3.33362 121.415 4.27567 121.849 4.20321ZM123.444 28.7691C123.081 28.8415 122.646 28.914 122.284 28.9865C121.56 29.1314 121.197 29.5662 121.052 29.7836C120.617 30.3633 120.762 31.0155 121.632 30.8706C121.922 30.7981 122.139 30.7981 122.357 30.7256C122.502 30.7256 122.574 30.6532 122.719 30.6532C123.589 30.4358 123.951 29.7111 124.023 29.6387C124.241 29.2039 124.241 28.6241 123.444 28.7691ZM128.081 26.0154C127.792 26.1603 127.502 26.5951 127.429 26.8125C127.357 27.0299 127.139 27.6096 127.502 27.4647C127.719 27.3922 127.864 27.2473 128.009 27.1748C128.009 27.1748 128.081 27.1748 128.154 27.1748C128.299 27.4647 127.502 28.6966 126.922 29.1314C126.56 29.3488 126.052 29.5662 125.545 29.7836C124.965 30.0735 124.603 30.6532 124.603 30.6532C124.531 30.7981 124.458 31.0155 124.748 30.943C125.545 30.6532 126.125 30.2909 126.56 29.9285C126.632 29.8561 126.777 29.7111 126.849 29.6387L127.429 28.9865L128.009 28.1893C128.009 28.1893 128.009 28.1169 128.081 28.1169C128.081 28.1169 128.081 28.0444 128.154 28.0444C128.371 27.6821 128.589 27.3198 128.806 26.9574C128.879 26.8125 128.951 26.6676 129.096 26.5226L129.386 25.9429C129.603 25.5081 129.893 24.8559 130.11 24.3487C130.11 24.3487 130.11 24.2762 130.183 24.2762L130.11 24.3487C129.676 25.1458 128.806 25.5806 128.081 26.0154Z" fill="#AFAFAF"/>
<path d="M111.051 27.2471C104.602 27.2471 99.5289 27.0297 99.4564 27.0297C99.0941 27.0297 98.7318 26.6674 98.8042 26.305C98.8042 25.9427 99.1666 25.5804 99.5289 25.6528C99.6014 25.6528 109.094 26.0152 118.587 25.7253C135.979 25.2181 137.936 23.0441 138.081 22.3919C138.153 22.102 138.081 21.0875 134.24 19.1309C133.878 18.9135 133.733 18.5512 133.95 18.1889C134.168 17.8266 134.53 17.6816 134.892 17.899C138.371 19.7107 139.82 21.2324 139.458 22.8267C139.023 24.4934 136.414 26.7398 118.587 27.2471C115.979 27.1746 113.442 27.2471 111.051 27.2471Z" fill="#AFAFAF"/>
<path d="M68.2251 8.76758C67.7178 8.76758 67.3555 9.20237 67.3555 9.70963C67.3555 10.2169 67.7903 10.5792 68.2251 10.5792C68.7323 10.5792 69.0946 10.2169 69.0946 9.70963C69.0946 9.12991 68.7323 8.76758 68.2251 8.76758Z" fill="#AFAFAF"/>
<path d="M1.8456 8.76758H0.831078C0.541216 8.76758 0.46875 8.91251 0.46875 9.12991V36.0147C0.46875 36.3045 0.613681 36.377 0.831078 36.377H1.8456C2.13546 36.377 2.20793 36.2321 2.20793 36.0147V9.12991C2.28039 8.91251 2.13546 8.76758 1.8456 8.76758Z" fill="#AFAFAF"/>
<path d="M32.3546 16.3047C28.5139 16.3047 26.195 19.1308 24.9631 22.0295C24.3109 18.9859 22.4268 16.3047 18.6586 16.3047C14.8179 16.3047 12.6439 19.1308 11.7743 21.4498V17.1018C11.7743 16.8119 11.6294 16.7395 11.412 16.7395H10.3975C10.1076 16.7395 10.0352 16.8844 10.0352 17.1018V36.0878C10.0352 36.3052 10.1801 36.4501 10.3975 36.4501H11.3395C11.6294 36.4501 11.7019 36.3052 11.7019 36.0878V26.0151C11.7019 21.957 14.673 18.0439 18.2962 18.0439C22.0645 18.0439 23.6587 21.3773 23.6587 25.9426V36.0878C23.6587 36.3052 23.8036 36.4501 24.021 36.4501H25.0356C25.3254 36.4501 25.3979 36.3052 25.3979 36.0878V26.0151C25.3979 21.7396 28.5864 18.0439 32.0647 18.0439C35.8329 18.0439 37.3547 21.3773 37.3547 25.9426V36.0878C37.3547 36.3052 37.4996 36.4501 37.7895 36.4501H38.7316C39.0214 36.4501 39.0939 36.3052 39.0939 36.0878V25.7252C39.1664 19.928 36.9199 16.3047 32.3546 16.3047Z" fill="#AFAFAF"/>
<path d="M48.079 34.7103H61.3402C61.6301 34.7103 61.775 34.8552 61.7026 35.0726V36.0147C61.7026 36.3045 61.5576 36.377 61.3402 36.377H46.7022C46.4123 36.377 46.3398 36.2321 46.3398 36.0147V9.12991C46.3398 8.84004 46.4848 8.76758 46.7022 8.76758H47.7167C48.0066 8.76758 48.079 8.91251 48.079 9.12991V34.7103Z" fill="#AFAFAF"/>
<path d="M67.7178 16.668H68.6598C68.9497 16.668 69.0946 16.8129 69.0946 17.0303V36.0163C69.0946 36.3062 68.9497 36.3786 68.6598 36.3786H67.7178C67.4279 36.3786 67.3555 36.2337 67.3555 36.0163V17.1028C67.3555 16.8129 67.4279 16.668 67.7178 16.668Z" fill="#AFAFAF"/>
<path d="M89.9645 16.668H88.805C88.5152 16.668 88.4427 16.8129 88.2978 17.0303L82.2107 33.8423L76.0511 17.0303C75.9786 16.8129 75.9061 16.668 75.5438 16.668H74.3844C74.0945 16.668 74.022 16.8129 74.0945 17.0303L80.9063 35.7989C81.0512 36.1612 81.2686 36.3786 81.5585 36.3786H82.7179C83.0078 36.3786 83.2252 36.1612 83.2976 35.7989L90.1819 17.0303C90.3268 16.8854 90.2543 16.668 89.9645 16.668Z" fill="#AFAFAF"/>
<path d="M95.254 26.1612C95.254 31.0889 99.2396 35.0745 104.167 35.0745C107.718 35.0745 110.762 32.973 112.211 30.0019H113.805C112.283 33.8426 108.515 36.5963 104.167 36.5963C98.4425 36.5963 93.8047 31.9585 93.8047 26.2337C93.8047 20.5089 98.4425 15.8711 104.167 15.8711C109.892 15.8711 114.53 20.5089 114.53 26.2337H113.008C113.008 21.306 109.022 17.3204 104.095 17.3204C99.2396 17.2479 95.254 21.2336 95.254 26.1612Z" fill="#AFAFAF"/>
</g>
<defs>
<clipPath id="clip0_348_1427">
<rect width="138.989" height="36.5227" fill="white" transform="translate(0.46875)"/>
</clipPath>
</defs>
</svg>
